<svg width="158" height="165" viewBox="0 0 158 165" fill="none" xmlns="http://www.w3.org/2000/svg">
<g clip-path="url(#clip0_681_128)">
<path d="M107.261 25.0126C107.219 25.0858 107.164 25.1591 107.136 25.2469C106.694 26.3453 105.698 26.9458 104.661 26.7408C103.569 26.5211 102.864 25.5691 102.85 24.295C102.85 20.0039 102.85 15.7128 102.85 11.4363C102.85 9.42993 102.104 7.83359 100.348 6.92558C99.8086 6.64732 99.1588 6.50086 98.5505 6.44228C97.5827 6.36905 96.6011 6.42763 95.5642 6.42763C95.5642 7.1599 95.5642 7.87752 95.5642 8.59515C95.5642 10.0743 94.6517 11.0995 93.3521 11.0995C92.0525 11.0995 91.1677 10.0743 91.1539 8.5805C91.1539 7.87753 91.1539 7.18919 91.1539 6.45692C87.8081 6.45692 84.5038 6.45692 81.1027 6.45692C81.1027 7.23313 81.1166 8.02398 81.1027 8.80018C81.0889 9.72284 80.688 10.4112 79.9276 10.8359C79.1672 11.2606 78.3929 11.202 77.674 10.7041C77.0519 10.2647 76.7201 9.63497 76.7062 8.84412C76.6924 8.06792 76.7062 7.29171 76.7062 6.47157C73.4019 6.47157 70.1115 6.47157 66.7657 6.47157C66.7657 7.20384 66.7657 7.93611 66.7657 8.66837C66.7519 10.089 65.8256 11.1142 64.5536 11.1142C63.2817 11.1142 62.3692 10.089 62.3554 8.65373C62.3554 7.93611 62.3554 7.21848 62.3554 6.36905C61.042 6.44228 59.7562 6.36905 58.5395 6.63267C56.4104 7.10132 55.1661 8.97593 55.1523 11.4071C55.1385 15.4492 55.1523 19.4767 55.1523 23.5188C55.1523 31.4273 55.1523 39.3504 55.1523 47.2589C55.1523 49.2653 55.885 50.891 57.6547 51.755C58.346 52.0919 59.1755 52.253 59.9359 52.253C65.4246 52.2969 70.8995 52.2676 76.3882 52.2823C77.5358 52.2823 78.4344 53.0585 78.6418 54.2008C78.8354 55.2992 78.2685 56.3537 77.2316 56.8223C77.1486 56.8516 77.0795 56.9102 77.0104 56.9541C70.8304 56.9541 64.6504 56.9541 58.4704 56.9541C58.3736 56.9102 58.2769 56.8516 58.1801 56.837C54.0877 56.2072 50.7696 52.2823 50.7558 47.9033C50.7281 35.528 50.742 23.1526 50.7696 10.7627C50.7696 9.88394 50.9494 8.97593 51.212 8.14114C52.4425 4.24547 55.7468 1.75576 59.6179 1.74112C60.5166 1.74112 61.4014 1.74112 62.3416 1.74112C62.3416 0.964913 62.3416 0.276581 62.3416 -0.426396C62.3416 -1.90558 63.254 -2.93075 64.5398 -2.93075C65.8394 -2.93075 66.7381 -1.90558 66.7381 -0.426396C66.7381 0.291227 66.7381 0.994204 66.7381 1.69718C70.0976 1.69718 73.3743 1.69718 76.6786 1.69718C76.6786 0.920977 76.6786 0.203355 76.6786 -0.514268C76.6924 -1.90558 77.6187 -2.91611 78.863 -2.93075C80.1488 -2.9454 81.0751 -1.92022 81.0889 -0.499623C81.0889 0.232645 81.0889 0.964914 81.0889 1.71183C84.4623 1.71183 87.7804 1.71183 91.14 1.71183C91.14 1.4775 91.14 1.28711 91.14 1.09672C91.14 0.466971 91.1262 -0.148134 91.1539 -0.777885C91.2092 -1.99345 92.1908 -2.93075 93.3659 -2.93075C94.5273 -2.93075 95.5089 -1.9788 95.5504 -0.76324C95.578 0.0715462 95.5504 0.891686 95.5504 1.75576C96.6149 1.75576 97.5827 1.72647 98.5643 1.75576C102.104 1.88757 104.717 3.65966 106.334 6.98416C106.777 7.89217 106.956 8.94664 107.261 9.94252C107.261 14.9659 107.261 19.9892 107.261 25.0126Z" fill="#C7B36C"/>
<path d="M92.5795 56.9533C91.9021 56.7922 91.2108 56.6897 90.5472 56.4846C85.2935 54.8737 81.9477 51.227 80.8279 45.5885C79.3209 38.0461 83.7865 30.8699 90.9066 29.0099C96.741 27.4868 103.197 30.7088 105.824 36.4059C106.502 37.885 106.986 39.4228 107.165 41.0631C107.179 41.1802 107.235 41.2828 107.276 41.3853C107.276 42.3226 107.276 43.2599 107.276 44.1972C107.193 44.6951 107.124 45.1931 106.999 45.6764C105.672 51.3148 102.409 54.9615 97.1143 56.5286C96.506 56.7043 95.87 56.8068 95.2478 56.9533C94.3492 56.9533 93.4644 56.9533 92.5795 56.9533ZM93.9206 33.3303C89.0402 33.3157 85.0032 37.5775 84.9755 42.7619C84.934 47.9318 88.9987 52.2668 93.9068 52.2668C98.7872 52.2814 102.824 48.0196 102.852 42.8352C102.88 37.6654 98.8148 33.3303 93.9206 33.3303Z" fill="#C7B36C"/>
<path d="M64.5116 23.9582C63.2949 23.9435 62.3271 22.9183 62.3271 21.6149C62.3271 20.2968 63.3226 19.2716 64.5807 19.2863C65.7973 19.3009 66.7513 20.3554 66.7375 21.6588C66.7375 22.9623 65.742 23.9728 64.5116 23.9582Z" fill="#C7B36C"/>
<path d="M74.1469 23.958C72.9164 23.958 71.9486 22.9328 71.9348 21.644C71.9348 20.326 72.9164 19.2861 74.1607 19.2861C75.3774 19.3008 76.3451 20.326 76.3451 21.6294C76.3451 22.9328 75.3774 23.958 74.1469 23.958Z" fill="#C7B36C"/>
<path d="M85.9544 21.6442C85.9544 22.933 84.9728 23.9582 83.7423 23.9582C82.498 23.9582 81.5303 22.9037 81.5441 21.571C81.5579 20.2822 82.5534 19.2716 83.7838 19.2863C85.0005 19.3009 85.9544 20.3408 85.9544 21.6442Z" fill="#C7B36C"/>
<path d="M95.5633 21.6442C95.5633 22.933 94.5817 23.9582 93.3512 23.9582C92.1069 23.9582 91.1392 22.9037 91.153 21.571C91.1668 20.2822 92.1622 19.2716 93.3927 19.2863C94.6094 19.3009 95.5633 20.3408 95.5633 21.6442Z" fill="#C7B36C"/>
<path d="M66.7518 31.8078C66.7518 33.1112 65.784 34.1364 64.5535 34.1364C63.3092 34.1364 62.3276 33.0966 62.3415 31.7638C62.3553 30.475 63.3369 29.4499 64.5674 29.4645C65.784 29.4792 66.7518 30.5043 66.7518 31.8078Z" fill="#C7B36C"/>
<path d="M74.1674 29.4644C75.3979 29.4644 76.3657 30.5042 76.3657 31.793C76.3657 33.1111 75.384 34.1509 74.1259 34.1362C72.9093 34.1216 71.9553 33.0818 71.9553 31.7783C71.9553 30.4895 72.9369 29.4644 74.1674 29.4644Z" fill="#C7B36C"/>
<path d="M64.5396 39.6433C65.77 39.6433 66.7378 40.6685 66.7516 41.9573C66.7655 43.29 65.7839 44.3298 64.5257 44.3152C63.3091 44.3005 62.3413 43.2754 62.3413 41.9719C62.3413 40.6685 63.3091 39.6433 64.5396 39.6433Z" fill="#C7B36C"/>
<path d="M74.1609 44.3152C72.9304 44.3152 71.9488 43.3046 71.935 42.0159C71.9211 40.6831 72.9027 39.6433 74.147 39.6433C75.3637 39.6433 76.3453 40.6831 76.3453 41.9719C76.3453 43.2754 75.3775 44.3152 74.1609 44.3152Z" fill="#C7B36C"/>
<path d="M96.1022 40.4621C96.5031 40.4621 96.8487 40.4475 97.1944 40.4621C98.3972 40.5061 99.3235 41.5459 99.3097 42.8347C99.2959 44.0795 98.3695 45.1047 97.1806 45.134C96.0607 45.1486 94.9408 45.1486 93.821 45.134C92.6596 45.1047 91.7195 44.1235 91.7057 42.8933C91.6918 41.2383 91.678 39.5834 91.7057 37.9285C91.7195 36.6543 92.7149 35.6731 93.9316 35.6731C95.1067 35.6877 96.0745 36.669 96.1022 37.9138C96.1298 38.734 96.1022 39.5688 96.1022 40.4621Z" fill="#C7B36C"/>
</g>
<path d="M31.7896 122.192V121.599L32.7651 121.52C33.2837 121.467 33.5869 121.282 33.6748 120.966C33.7715 120.65 33.8198 119.656 33.8198 117.987V108.587C33.8198 106.917 33.7715 105.919 33.6748 105.594C33.5869 105.269 33.2837 105.089 32.7651 105.053L31.7896 104.961V104.368H39.0273C42.5605 104.368 44.3271 105.603 44.3271 108.073C44.3271 108.617 44.2305 109.132 44.0371 109.615C43.8438 110.09 43.6064 110.485 43.3252 110.802C43.0527 111.109 42.7407 111.386 42.3892 111.632C42.0376 111.878 41.7168 112.063 41.4268 112.186C41.1455 112.309 40.8862 112.397 40.6489 112.449V112.502C41.2202 112.564 41.7739 112.7 42.3101 112.911C42.8462 113.122 43.3516 113.407 43.8262 113.768C44.3008 114.128 44.6787 114.598 44.96 115.178C45.25 115.759 45.395 116.405 45.395 117.116C45.395 117.987 45.2192 118.756 44.8677 119.424C44.5161 120.083 44.0283 120.61 43.4043 121.006C42.7803 121.401 42.064 121.7 41.2554 121.902C40.4468 122.095 39.5591 122.192 38.5923 122.192H31.7896ZM36.3247 105.264V112.278H37.4058C37.8892 112.278 38.3198 112.256 38.6978 112.212C39.0845 112.159 39.48 112.054 39.8843 111.896C40.2886 111.738 40.6226 111.527 40.8862 111.263C41.1587 110.99 41.3784 110.626 41.5454 110.169C41.7212 109.703 41.8091 109.158 41.8091 108.534C41.8091 107.418 41.4619 106.574 40.7676 106.003C40.0732 105.423 39.124 105.133 37.9199 105.133C37.4014 105.133 36.8696 105.177 36.3247 105.264ZM36.3247 113.043V121.085C37.23 121.322 38.0693 121.441 38.8428 121.441C40.0645 121.441 40.9873 121.107 41.6113 120.439C42.2441 119.771 42.5605 118.826 42.5605 117.604C42.5605 117.226 42.521 116.848 42.4419 116.47C42.3628 116.093 42.2046 115.693 41.9673 115.271C41.7388 114.84 41.4443 114.467 41.084 114.15C40.7236 113.834 40.2314 113.57 39.6074 113.359C38.9922 113.148 38.2847 113.043 37.4849 113.043H36.3247ZM54.1753 122.601C53.3052 122.601 52.4834 122.465 51.71 122.192C50.9453 121.928 50.2598 121.542 49.6533 121.032C49.0469 120.522 48.5679 119.859 48.2163 119.041C47.8647 118.224 47.689 117.301 47.689 116.273C47.689 115.403 47.812 114.598 48.0581 113.86C48.3042 113.113 48.6382 112.476 49.0601 111.948C49.4819 111.421 49.9741 110.973 50.5366 110.604C51.1079 110.226 51.71 109.949 52.3428 109.773C52.9844 109.589 53.6392 109.496 54.3071 109.496C56.2407 109.496 57.8052 110.068 59.0005 111.21C60.2046 112.344 60.8066 113.843 60.8066 115.706C60.8066 116.831 60.6221 117.842 60.2529 118.738C59.8926 119.635 59.4004 120.36 58.7764 120.913C58.1523 121.467 57.4492 121.889 56.667 122.179C55.8848 122.46 55.0542 122.601 54.1753 122.601ZM50.1807 115.956C50.1807 116.721 50.2686 117.442 50.4443 118.118C50.6289 118.786 50.897 119.388 51.2485 119.925C51.6089 120.461 52.0747 120.883 52.646 121.19C53.2261 121.498 53.8853 121.652 54.6235 121.652C55.8013 121.652 56.7109 121.159 57.3525 120.175C58.0029 119.191 58.3281 117.947 58.3281 116.444C58.3281 115.609 58.2446 114.844 58.0776 114.15C57.9194 113.447 57.6689 112.814 57.3262 112.252C56.9922 111.68 56.5352 111.237 55.9551 110.92C55.3838 110.604 54.7158 110.446 53.9512 110.446C53.2832 110.446 52.6943 110.608 52.1846 110.933C51.6748 111.259 51.2793 111.694 50.998 112.239C50.7256 112.783 50.519 113.368 50.3784 113.992C50.2466 114.616 50.1807 115.271 50.1807 115.956ZM69.6792 122.601C68.8091 122.601 67.9873 122.465 67.2139 122.192C66.4492 121.928 65.7637 121.542 65.1572 121.032C64.5508 120.522 64.0718 119.859 63.7202 119.041C63.3687 118.224 63.1929 117.301 63.1929 116.273C63.1929 115.403 63.3159 114.598 63.562 113.86C63.8081 113.113 64.1421 112.476 64.564 111.948C64.9858 111.421 65.478 110.973 66.0405 110.604C66.6118 110.226 67.2139 109.949 67.8467 109.773C68.4883 109.589 69.1431 109.496 69.811 109.496C71.7446 109.496 73.3091 110.068 74.5044 111.21C75.7085 112.344 76.3105 113.843 76.3105 115.706C76.3105 116.831 76.126 117.842 75.7568 118.738C75.3965 119.635 74.9043 120.36 74.2803 120.913C73.6562 121.467 72.9531 121.889 72.1709 122.179C71.3887 122.46 70.5581 122.601 69.6792 122.601ZM65.6846 115.956C65.6846 116.721 65.7725 117.442 65.9482 118.118C66.1328 118.786 66.4009 119.388 66.7524 119.925C67.1128 120.461 67.5786 120.883 68.1499 121.19C68.73 121.498 69.3892 121.652 70.1274 121.652C71.3052 121.652 72.2148 121.159 72.8564 120.175C73.5068 119.191 73.832 117.947 73.832 116.444C73.832 115.609 73.7485 114.844 73.5815 114.15C73.4233 113.447 73.1729 112.814 72.8301 112.252C72.4961 111.68 72.0391 111.237 71.459 110.92C70.8877 110.604 70.2197 110.446 69.4551 110.446C68.7871 110.446 68.1982 110.608 67.6885 110.933C67.1787 111.259 66.7832 111.694 66.502 112.239C66.2295 112.783 66.0229 113.368 65.8823 113.992C65.7505 114.616 65.6846 115.271 65.6846 115.956ZM78.3408 122.192V121.599L79 121.52C79.29 121.485 79.4878 121.454 79.5933 121.427C79.7075 121.401 79.8218 121.322 79.936 121.19C80.0503 121.058 80.1206 120.869 80.147 120.623C80.1733 120.377 80.1865 120.017 80.1865 119.542V107.071C80.1865 106.394 80.1777 105.906 80.1602 105.607C80.1514 105.308 80.1162 104.979 80.0547 104.618C80.002 104.258 79.9053 104.016 79.7646 103.893C79.6328 103.761 79.4482 103.696 79.2109 103.696C79.1582 103.696 79.0835 103.7 78.9868 103.709C78.8901 103.718 78.8374 103.722 78.8286 103.722L78.4331 103.775L78.3408 103.181C78.7979 103.085 79.4746 102.988 80.3711 102.891C81.2676 102.795 81.9883 102.746 82.5332 102.746V115.231H82.9946C83.4868 115.231 83.9175 115.143 84.2866 114.968C84.6646 114.783 85.0425 114.484 85.4204 114.071L86.396 112.937C86.9321 112.322 87.3057 111.869 87.5166 111.579C87.7363 111.289 87.8462 111.056 87.8462 110.881C87.8462 110.696 87.5693 110.586 87.0156 110.551L86.1455 110.498V109.905H91.5508V110.498L91.0366 110.551C90.5181 110.604 90.1226 110.696 89.8501 110.828C89.5864 110.951 89.27 111.21 88.9009 111.606L87.7935 112.819C87.5474 113.082 87.2222 113.451 86.8179 113.926C86.4224 114.392 86.1631 114.682 86.04 114.796C86.6377 115.772 87.2222 116.655 87.7935 117.446L89.2041 119.384C89.6875 120.061 90.0874 120.562 90.4038 120.887C90.7202 121.212 90.9707 121.414 91.1553 121.493C91.3398 121.564 91.5815 121.599 91.8804 121.599V122.192H90.3643C89.9512 122.192 89.6128 122.175 89.3491 122.139C89.0942 122.104 88.9097 122.065 88.7954 122.021C88.6899 121.977 88.5361 121.898 88.334 121.783C87.7891 121.476 87.0244 120.557 86.04 119.028L85.0117 117.472C84.8535 117.235 84.7305 117.059 84.6426 116.945C84.5547 116.822 84.4316 116.686 84.2734 116.536C84.124 116.378 83.9658 116.268 83.7988 116.207C83.6318 116.145 83.4429 116.115 83.2319 116.115H82.5332V119.542C82.5332 119.929 82.5464 120.237 82.5728 120.465C82.5991 120.685 82.6299 120.865 82.665 121.006C82.7002 121.146 82.7749 121.252 82.8892 121.322C83.0122 121.384 83.1221 121.427 83.2188 121.454C83.3242 121.471 83.5 121.493 83.7461 121.52L84.3657 121.599V122.192H78.3408ZM111.102 121.546L111.247 121.928C111.036 122.069 110.882 122.166 110.786 122.219C110.689 122.28 110.482 122.359 110.166 122.456C109.858 122.552 109.533 122.601 109.19 122.601C108.118 122.601 107.406 122.223 107.055 121.467C106.694 121.704 106.374 121.893 106.092 122.034C105.811 122.166 105.402 122.293 104.866 122.416C104.339 122.539 103.746 122.601 103.086 122.601C102.093 122.601 101.285 122.355 100.661 121.863C100.045 121.362 99.7378 120.733 99.7378 119.977C99.7378 119.459 99.8345 118.975 100.028 118.527C100.23 118.079 100.511 117.692 100.872 117.367C101.241 117.033 101.632 116.739 102.045 116.484C102.458 116.22 102.928 115.987 103.456 115.785C103.983 115.583 104.458 115.416 104.879 115.284C105.31 115.143 105.758 115.007 106.224 114.875C106.488 114.805 106.677 114.752 106.791 114.717V114.097C106.791 113.614 106.751 113.188 106.672 112.819C106.602 112.449 106.475 112.102 106.29 111.777C106.114 111.452 105.855 111.206 105.512 111.039C105.178 110.863 104.765 110.775 104.273 110.775C104.062 110.775 103.86 110.793 103.667 110.828C103.473 110.863 103.297 110.907 103.139 110.96C102.99 111.004 102.84 111.078 102.691 111.184C102.542 111.281 102.414 111.364 102.309 111.434C102.212 111.496 102.102 111.601 101.979 111.751C101.856 111.9 101.764 112.01 101.702 112.08C101.641 112.151 101.557 112.274 101.452 112.449C101.355 112.616 101.289 112.731 101.254 112.792C101.228 112.854 101.17 112.977 101.083 113.161C100.995 113.337 100.942 113.438 100.924 113.465H100.713C100.379 113.104 100.146 112.748 100.015 112.397C101.456 110.463 103.253 109.496 105.407 109.496C106.163 109.496 106.787 109.593 107.279 109.786C107.78 109.971 108.162 110.265 108.426 110.67C108.698 111.065 108.883 111.513 108.979 112.014C109.085 112.515 109.138 113.135 109.138 113.873V117.736C109.138 118.052 109.138 118.294 109.138 118.461C109.146 118.619 109.155 118.844 109.164 119.134C109.173 119.424 109.19 119.652 109.217 119.819C109.243 119.977 109.278 120.171 109.322 120.399C109.366 120.619 109.423 120.795 109.494 120.927C109.573 121.05 109.661 121.177 109.757 121.309C109.863 121.432 109.986 121.52 110.126 121.573C110.276 121.625 110.443 121.652 110.627 121.652C110.803 121.652 110.961 121.616 111.102 121.546ZM106.791 115.983H106.409C105.978 115.983 105.539 116.035 105.09 116.141C104.651 116.238 104.203 116.4 103.746 116.629C103.297 116.857 102.933 117.196 102.651 117.644C102.37 118.083 102.229 118.602 102.229 119.199C102.229 119.964 102.454 120.566 102.902 121.006C103.35 121.436 103.961 121.652 104.734 121.652C105.095 121.652 105.433 121.573 105.75 121.414C106.075 121.247 106.303 121.098 106.435 120.966C106.576 120.825 106.694 120.685 106.791 120.544V115.983ZM112.526 122.192V121.599L113.172 121.52C113.523 121.485 113.77 121.423 113.91 121.335C114.06 121.247 114.169 121.072 114.24 120.808C114.319 120.544 114.358 120.122 114.358 119.542V114.308C114.358 112.858 114.319 111.931 114.24 111.527C114.169 111.114 113.958 110.907 113.607 110.907C113.554 110.907 113.479 110.911 113.383 110.92C113.286 110.929 113.233 110.933 113.225 110.933L112.631 111.092L112.526 110.446C114.6 109.813 115.993 109.496 116.705 109.496V111.197C117.944 110.063 119.324 109.496 120.845 109.496C121.434 109.496 121.952 109.562 122.4 109.694C122.849 109.817 123.218 109.962 123.508 110.129C123.807 110.296 124.057 110.555 124.259 110.907C124.461 111.25 124.615 111.557 124.721 111.83C124.826 112.094 124.901 112.48 124.945 112.99C124.998 113.491 125.028 113.891 125.037 114.19C125.046 114.489 125.05 114.932 125.05 115.521V119.542C125.05 120.131 125.085 120.557 125.156 120.821C125.226 121.076 125.336 121.247 125.485 121.335C125.635 121.423 125.894 121.485 126.263 121.52L126.883 121.599V122.192H120.871V121.599L121.517 121.52C121.869 121.485 122.115 121.423 122.255 121.335C122.405 121.247 122.515 121.072 122.585 120.808C122.664 120.544 122.704 120.122 122.704 119.542V115.93C122.704 115.367 122.695 114.941 122.677 114.651C122.668 114.352 122.638 113.966 122.585 113.491C122.532 113.008 122.436 112.638 122.295 112.384C122.163 112.12 121.983 111.847 121.754 111.566C121.526 111.285 121.218 111.083 120.832 110.96C120.454 110.837 120.005 110.775 119.487 110.775C118.397 110.775 117.47 111.259 116.705 112.225V119.542C116.705 120.131 116.74 120.557 116.811 120.821C116.881 121.076 116.991 121.247 117.14 121.335C117.29 121.423 117.549 121.485 117.918 121.52L118.551 121.599V122.192H112.526ZM0.122559 154.192V153.599L0.636719 153.52C1.12891 153.441 1.46729 153.291 1.65186 153.072C1.84521 152.843 2.11328 152.316 2.45605 151.49L8.05908 137.831C8.13818 137.62 8.26123 137.322 8.42822 136.935C8.59521 136.539 8.69189 136.306 8.71826 136.236L9.49609 135.972L15.521 151.595C15.7583 152.228 15.9648 152.68 16.1406 152.953C16.3252 153.217 16.5757 153.379 16.8921 153.441L17.9731 153.599V154.192H11.2759V153.599L12.4888 153.388C13.0513 153.3 13.3325 153.129 13.3325 152.874C13.3325 152.821 13.3237 152.764 13.3062 152.702C13.2886 152.632 13.2622 152.562 13.2271 152.491C13.2007 152.412 13.1831 152.351 13.1743 152.307L11.2759 147.205C10.2739 147.02 9.27637 146.928 8.2832 146.928C7.50098 146.928 6.55615 147.02 5.44873 147.205L4.06445 150.949C3.7041 151.898 3.52393 152.5 3.52393 152.755C3.52393 153.142 3.74365 153.353 4.18311 153.388L5.7915 153.599V154.192H0.122559ZM8.3623 139.637L5.7915 146.177C7.12744 146.089 7.94922 146.045 8.25684 146.045C9.25879 146.045 10.1201 146.089 10.8408 146.177L8.3623 139.637ZM18.1577 160.138V159.545L18.8037 159.452C19.2959 159.4 19.6167 159.259 19.7661 159.031C19.9155 158.811 19.9902 158.297 19.9902 157.488V146.308C19.9902 144.858 19.9507 143.931 19.8716 143.527C19.8013 143.114 19.5903 142.907 19.2388 142.907C19.186 142.907 19.1113 142.911 19.0146 142.92C18.918 142.929 18.8652 142.933 18.8564 142.933L18.2632 143.092L18.1577 142.446C18.2104 142.428 18.3687 142.38 18.6323 142.301C18.9048 142.213 19.1289 142.142 19.3047 142.09C19.4805 142.037 19.7178 141.971 20.0166 141.892C20.3154 141.804 20.5703 141.738 20.7812 141.694C20.9922 141.641 21.2119 141.597 21.4404 141.562C21.6777 141.518 21.8711 141.496 22.0205 141.496C22.1084 141.637 22.1831 141.83 22.2446 142.076C22.3149 142.323 22.3501 142.507 22.3501 142.63C22.7104 142.41 22.9873 142.248 23.1807 142.142C23.374 142.037 23.7476 141.905 24.3013 141.747C24.855 141.58 25.4087 141.496 25.9624 141.496C27.0522 141.496 28.0366 141.72 28.9155 142.169C29.7944 142.617 30.502 143.294 31.0381 144.199C31.583 145.104 31.8555 146.168 31.8555 147.389C31.8555 148.435 31.6973 149.385 31.3809 150.237C31.0645 151.081 30.6514 151.766 30.1416 152.294C29.6406 152.821 29.0605 153.265 28.4014 153.625C27.751 153.986 27.105 154.236 26.4634 154.377C25.8306 154.526 25.1978 154.601 24.5649 154.601C23.9233 154.601 23.1851 154.5 22.3501 154.298V157.488C22.3501 158.305 22.4204 158.824 22.561 159.044C22.7104 159.263 23.0444 159.4 23.563 159.452L24.1826 159.545V160.138H18.1577ZM22.3501 143.395V152.676C22.3853 152.694 22.4775 152.76 22.627 152.874C22.7852 152.979 22.8906 153.05 22.9434 153.085C23.0049 153.111 23.1104 153.168 23.2598 153.256C23.4092 153.335 23.541 153.392 23.6553 153.427C23.7695 153.454 23.9146 153.489 24.0903 153.533C24.2749 153.577 24.4683 153.608 24.6704 153.625C24.8726 153.643 25.0967 153.652 25.3428 153.652C26.6611 153.652 27.6587 153.151 28.3354 152.149C29.021 151.147 29.3638 149.758 29.3638 147.983C29.3638 147.13 29.2319 146.365 28.9683 145.689C28.7046 145.012 28.3486 144.467 27.9004 144.054C27.4521 143.632 26.9468 143.316 26.3843 143.105C25.8306 142.885 25.2417 142.775 24.6177 142.775C24.3452 142.775 24.0771 142.802 23.8135 142.854C23.5498 142.907 23.3521 142.96 23.2202 143.012C23.0972 143.056 22.9258 143.131 22.7061 143.237C22.4863 143.333 22.3677 143.386 22.3501 143.395ZM33.6616 160.138V159.545L34.3076 159.452C34.7998 159.4 35.1206 159.259 35.27 159.031C35.4194 158.811 35.4941 158.297 35.4941 157.488V146.308C35.4941 144.858 35.4546 143.931 35.3755 143.527C35.3052 143.114 35.0942 142.907 34.7427 142.907C34.6899 142.907 34.6152 142.911 34.5186 142.92C34.4219 142.929 34.3691 142.933 34.3604 142.933L33.7671 143.092L33.6616 142.446C33.7144 142.428 33.8726 142.38 34.1362 142.301C34.4087 142.213 34.6328 142.142 34.8086 142.09C34.9844 142.037 35.2217 141.971 35.5205 141.892C35.8193 141.804 36.0742 141.738 36.2852 141.694C36.4961 141.641 36.7158 141.597 36.9443 141.562C37.1816 141.518 37.375 141.496 37.5244 141.496C37.6123 141.637 37.687 141.83 37.7485 142.076C37.8188 142.323 37.854 142.507 37.854 142.63C38.2144 142.41 38.4912 142.248 38.6846 142.142C38.8779 142.037 39.2515 141.905 39.8052 141.747C40.3589 141.58 40.9126 141.496 41.4663 141.496C42.5562 141.496 43.5405 141.72 44.4194 142.169C45.2983 142.617 46.0059 143.294 46.542 144.199C47.0869 145.104 47.3594 146.168 47.3594 147.389C47.3594 148.435 47.2012 149.385 46.8848 150.237C46.5684 151.081 46.1553 151.766 45.6455 152.294C45.1445 152.821 44.5645 153.265 43.9053 153.625C43.2549 153.986 42.6089 154.236 41.9673 154.377C41.3345 154.526 40.7017 154.601 40.0688 154.601C39.4272 154.601 38.689 154.5 37.854 154.298V157.488C37.854 158.305 37.9243 158.824 38.0649 159.044C38.2144 159.263 38.5483 159.4 39.0669 159.452L39.6865 159.545V160.138H33.6616ZM37.854 143.395V152.676C37.8892 152.694 37.9814 152.76 38.1309 152.874C38.2891 152.979 38.3945 153.05 38.4473 153.085C38.5088 153.111 38.6143 153.168 38.7637 153.256C38.9131 153.335 39.0449 153.392 39.1592 153.427C39.2734 153.454 39.4185 153.489 39.5942 153.533C39.7788 153.577 39.9722 153.608 40.1743 153.625C40.3765 153.643 40.6006 153.652 40.8467 153.652C42.165 153.652 43.1626 153.151 43.8394 152.149C44.5249 151.147 44.8677 149.758 44.8677 147.983C44.8677 147.13 44.7358 146.365 44.4722 145.689C44.2085 145.012 43.8525 144.467 43.4043 144.054C42.9561 143.632 42.4507 143.316 41.8882 143.105C41.3345 142.885 40.7456 142.775 40.1216 142.775C39.8491 142.775 39.5811 142.802 39.3174 142.854C39.0537 142.907 38.856 142.96 38.7241 143.012C38.6011 143.056 38.4297 143.131 38.21 143.237C37.9902 143.333 37.8716 143.386 37.854 143.395ZM56.166 154.601C55.2959 154.601 54.4741 154.465 53.7007 154.192C52.936 153.928 52.2505 153.542 51.644 153.032C51.0376 152.522 50.5586 151.859 50.207 151.041C49.8555 150.224 49.6797 149.301 49.6797 148.273C49.6797 147.403 49.8027 146.598 50.0488 145.86C50.2949 145.113 50.6289 144.476 51.0508 143.948C51.4727 143.421 51.9648 142.973 52.5273 142.604C53.0986 142.226 53.7007 141.949 54.3335 141.773C54.9751 141.589 55.6299 141.496 56.2979 141.496C58.2314 141.496 59.7959 142.068 60.9912 143.21C62.1953 144.344 62.7974 145.843 62.7974 147.706C62.7974 148.831 62.6128 149.842 62.2437 150.738C61.8833 151.635 61.3911 152.36 60.7671 152.913C60.1431 153.467 59.4399 153.889 58.6577 154.179C57.8755 154.46 57.0449 154.601 56.166 154.601ZM52.1714 147.956C52.1714 148.721 52.2593 149.442 52.4351 150.118C52.6196 150.786 52.8877 151.388 53.2393 151.925C53.5996 152.461 54.0654 152.883 54.6367 153.19C55.2168 153.498 55.876 153.652 56.6143 153.652C57.792 153.652 58.7017 153.159 59.3433 152.175C59.9937 151.191 60.3188 149.947 60.3188 148.444C60.3188 147.609 60.2354 146.844 60.0684 146.15C59.9102 145.447 59.6597 144.814 59.3169 144.252C58.9829 143.68 58.5259 143.237 57.9458 142.92C57.3745 142.604 56.7065 142.446 55.9419 142.446C55.2739 142.446 54.6851 142.608 54.1753 142.933C53.6655 143.259 53.27 143.694 52.9888 144.239C52.7163 144.783 52.5098 145.368 52.3691 145.992C52.2373 146.616 52.1714 147.271 52.1714 147.956ZM65.1309 154.192V153.599L65.7769 153.52C66.0581 153.485 66.2559 153.454 66.3701 153.427C66.4932 153.392 66.6074 153.309 66.7129 153.177C66.8271 153.036 66.8975 152.843 66.9238 152.597C66.9502 152.351 66.9634 151.999 66.9634 151.542V146.308C66.9634 144.858 66.9238 143.931 66.8447 143.527C66.7744 143.114 66.5635 142.907 66.2119 142.907C66.1592 142.907 66.0845 142.911 65.9878 142.92C65.8911 142.929 65.8384 142.933 65.8296 142.933L65.2363 143.092L65.1309 142.446C67.2051 141.813 68.5981 141.496 69.3101 141.496V151.542C69.3101 152.149 69.3452 152.584 69.4155 152.847C69.4946 153.111 69.6045 153.278 69.7451 153.348C69.8945 153.419 70.1582 153.476 70.5361 153.52L71.1558 153.599V154.192H65.1309ZM68.9409 137.976C68.6509 138.275 68.2905 138.425 67.8599 138.425C67.4292 138.425 67.0688 138.275 66.7788 137.976C66.4888 137.669 66.3438 137.313 66.3438 136.908C66.3438 136.495 66.4844 136.144 66.7656 135.854C67.0557 135.555 67.4204 135.406 67.8599 135.406C68.2993 135.406 68.6597 135.555 68.9409 135.854C69.231 136.144 69.376 136.495 69.376 136.908C69.376 137.313 69.231 137.669 68.9409 137.976ZM73.0146 154.192V153.599L73.6606 153.52C74.0122 153.485 74.2583 153.423 74.3989 153.335C74.5483 153.247 74.6582 153.072 74.7285 152.808C74.8076 152.544 74.8472 152.122 74.8472 151.542V146.308C74.8472 144.858 74.8076 143.931 74.7285 143.527C74.6582 143.114 74.4473 142.907 74.0957 142.907C74.043 142.907 73.9683 142.911 73.8716 142.92C73.7749 142.929 73.7222 142.933 73.7134 142.933L73.1201 143.092L73.0146 142.446C75.0889 141.813 76.4819 141.496 77.1938 141.496V143.197C78.4331 142.063 79.813 141.496 81.3335 141.496C81.9224 141.496 82.4409 141.562 82.8892 141.694C83.3374 141.817 83.7065 141.962 83.9966 142.129C84.2954 142.296 84.5459 142.555 84.748 142.907C84.9502 143.25 85.104 143.557 85.2095 143.83C85.3149 144.094 85.3896 144.48 85.4336 144.99C85.4863 145.491 85.5171 145.891 85.5259 146.19C85.5347 146.489 85.5391 146.932 85.5391 147.521V151.542C85.5391 152.131 85.5742 152.557 85.6445 152.821C85.7148 153.076 85.8247 153.247 85.9741 153.335C86.1235 153.423 86.3828 153.485 86.752 153.52L87.3716 153.599V154.192H81.3599V153.599L82.0059 153.52C82.3574 153.485 82.6035 153.423 82.7441 153.335C82.8936 153.247 83.0034 153.072 83.0737 152.808C83.1528 152.544 83.1924 152.122 83.1924 151.542V147.93C83.1924 147.367 83.1836 146.941 83.166 146.651C83.1572 146.352 83.1265 145.966 83.0737 145.491C83.021 145.008 82.9243 144.638 82.7837 144.384C82.6519 144.12 82.4717 143.847 82.2432 143.566C82.0146 143.285 81.707 143.083 81.3203 142.96C80.9424 142.837 80.4941 142.775 79.9756 142.775C78.8857 142.775 77.9585 143.259 77.1938 144.225V151.542C77.1938 152.131 77.229 152.557 77.2993 152.821C77.3696 153.076 77.4795 153.247 77.6289 153.335C77.7783 153.423 78.0376 153.485 78.4067 153.52L79.0396 153.599V154.192H73.0146ZM96.5474 153.085L96.7188 153.704C96.6924 153.713 96.6001 153.753 96.4419 153.823C96.2925 153.893 96.1519 153.955 96.02 154.008C95.8882 154.06 95.7124 154.126 95.4927 154.205C95.2729 154.284 95.062 154.35 94.8599 154.403C94.6665 154.456 94.4468 154.5 94.2007 154.535C93.9634 154.579 93.7393 154.601 93.5283 154.601C93.2383 154.601 92.9746 154.588 92.7373 154.561C92.5 154.535 92.2847 154.487 92.0913 154.416C91.9067 154.346 91.7397 154.271 91.5903 154.192C91.4497 154.122 91.3223 154.016 91.208 153.876C91.1025 153.735 91.0103 153.603 90.9312 153.48C90.8608 153.357 90.7993 153.19 90.7466 152.979C90.7026 152.76 90.6631 152.566 90.6279 152.399C90.6016 152.232 90.5796 152.008 90.562 151.727C90.5532 151.437 90.5444 151.186 90.5356 150.975C90.5356 150.756 90.5356 150.47 90.5356 150.118V143.039C89.6479 142.995 88.9448 142.907 88.4263 142.775V142.182C88.6724 142.164 89.0415 142.12 89.5337 142.05C90.0259 141.971 90.3599 141.923 90.5356 141.905V141.154C91.1509 140.371 91.9331 139.589 92.8823 138.807L93.1987 138.939C92.9878 140.31 92.8823 141.299 92.8823 141.905C93.146 141.923 93.6338 141.971 94.3457 142.05C95.0576 142.12 95.5234 142.164 95.7432 142.182V142.775C95.2686 142.898 94.3149 142.986 92.8823 143.039V148.879C92.8823 149.292 92.8823 149.604 92.8823 149.815C92.8911 150.026 92.9087 150.316 92.9351 150.685C92.9614 151.054 93.001 151.34 93.0537 151.542C93.1152 151.744 93.1987 151.977 93.3042 152.241C93.4185 152.496 93.5547 152.694 93.7129 152.834C93.8799 152.966 94.0864 153.08 94.3325 153.177C94.5786 153.274 94.8599 153.322 95.1763 153.322C95.5981 153.322 96.0552 153.243 96.5474 153.085ZM97.6416 154.192V153.599L98.2876 153.52C98.7798 153.467 99.1006 153.326 99.25 153.098C99.3994 152.869 99.4741 152.351 99.4741 151.542V146.308C99.4741 144.858 99.4346 143.931 99.3555 143.527C99.2852 143.114 99.0742 142.907 98.7227 142.907C98.6699 142.907 98.5952 142.911 98.4985 142.92C98.4019 142.929 98.3491 142.933 98.3403 142.933L97.7471 143.092L97.6416 142.446C99.7158 141.813 101.109 141.496 101.821 141.496V143.342C102.067 143.105 102.273 142.92 102.44 142.788C102.616 142.648 102.88 142.459 103.231 142.221C103.592 141.984 103.992 141.804 104.431 141.681C104.879 141.558 105.354 141.496 105.855 141.496C106.883 141.496 107.683 141.672 108.254 142.024C108.826 142.375 109.204 142.788 109.388 143.263C110.794 142.085 112.161 141.496 113.488 141.496C114.104 141.496 114.648 141.562 115.123 141.694C115.606 141.817 116.002 141.967 116.31 142.142C116.617 142.309 116.876 142.56 117.087 142.894C117.307 143.228 117.47 143.522 117.575 143.777C117.681 144.032 117.76 144.397 117.812 144.871C117.865 145.337 117.896 145.706 117.905 145.979C117.914 146.242 117.918 146.629 117.918 147.139V151.542C117.918 152.36 117.988 152.883 118.129 153.111C118.278 153.331 118.612 153.467 119.131 153.52L119.75 153.599V154.192H113.739V153.599L114.385 153.52C114.877 153.467 115.198 153.326 115.347 153.098C115.497 152.869 115.571 152.351 115.571 151.542V147.798C115.571 147.438 115.567 147.165 115.558 146.981C115.558 146.787 115.549 146.524 115.532 146.19C115.514 145.847 115.488 145.583 115.453 145.399C115.426 145.214 115.378 144.986 115.308 144.713C115.237 144.432 115.154 144.212 115.057 144.054C114.96 143.896 114.833 143.724 114.675 143.54C114.525 143.355 114.354 143.215 114.161 143.118C113.967 143.021 113.734 142.942 113.462 142.881C113.198 142.81 112.904 142.775 112.579 142.775C111.524 142.775 110.579 143.206 109.744 144.067C109.832 144.797 109.876 146.023 109.876 147.745V151.542C109.876 152.36 109.946 152.883 110.087 153.111C110.236 153.331 110.57 153.467 111.089 153.52L111.708 153.599V154.192H105.684V153.599L106.33 153.52C106.822 153.467 107.143 153.326 107.292 153.098C107.45 152.869 107.529 152.351 107.529 151.542V146.519C107.529 146.3 107.525 146.119 107.516 145.979C107.516 145.829 107.499 145.61 107.463 145.32C107.428 145.03 107.375 144.788 107.305 144.594C107.244 144.401 107.143 144.181 107.002 143.935C106.87 143.68 106.708 143.478 106.514 143.329C106.33 143.171 106.083 143.039 105.776 142.933C105.468 142.828 105.125 142.775 104.748 142.775C104.44 142.775 104.137 142.823 103.838 142.92C103.548 143.008 103.319 143.096 103.152 143.184C102.985 143.272 102.783 143.421 102.546 143.632C102.309 143.843 102.172 143.97 102.137 144.014C102.102 144.05 101.997 144.168 101.821 144.37V151.542C101.821 152.36 101.896 152.883 102.045 153.111C102.194 153.331 102.528 153.467 103.047 153.52L103.667 153.599V154.192H97.6416ZM132.169 152.465L132.486 153.085C132.152 153.401 131.55 153.735 130.68 154.087C129.81 154.429 128.838 154.601 127.766 154.601C126.624 154.601 125.586 154.364 124.655 153.889C123.732 153.414 122.989 152.707 122.427 151.766C121.864 150.826 121.583 149.736 121.583 148.497C121.583 147.398 121.763 146.396 122.124 145.491C122.484 144.586 122.958 143.847 123.547 143.276C124.145 142.705 124.813 142.265 125.551 141.958C126.29 141.65 127.054 141.496 127.845 141.496C128.346 141.496 128.808 141.549 129.229 141.655C129.651 141.76 130.007 141.892 130.297 142.05C130.596 142.208 130.869 142.41 131.115 142.656C131.37 142.903 131.572 143.135 131.721 143.355C131.871 143.575 132.007 143.839 132.13 144.146C132.262 144.445 132.358 144.696 132.42 144.898C132.481 145.091 132.543 145.32 132.604 145.583C130.311 146.717 127.463 147.679 124.062 148.47C124.088 148.831 124.158 149.213 124.272 149.617C124.387 150.022 124.576 150.448 124.839 150.896C125.103 151.344 125.419 151.744 125.789 152.096C126.158 152.448 126.628 152.742 127.199 152.979C127.779 153.208 128.417 153.322 129.111 153.322C129.375 153.322 129.634 153.304 129.889 153.269C130.144 153.234 130.363 153.195 130.548 153.151C130.732 153.098 130.921 153.036 131.115 152.966C131.317 152.887 131.466 152.825 131.563 152.781C131.668 152.729 131.787 152.667 131.919 152.597C132.06 152.518 132.143 152.474 132.169 152.465ZM127.067 142.446C126.522 142.446 126.043 142.604 125.63 142.92C125.226 143.228 124.914 143.632 124.694 144.133C124.475 144.634 124.312 145.153 124.207 145.689C124.11 146.216 124.062 146.748 124.062 147.284C126.197 146.888 128.232 146.374 130.166 145.741C130.078 145.364 129.985 145.034 129.889 144.753C129.801 144.463 129.673 144.168 129.506 143.869C129.339 143.562 129.15 143.311 128.939 143.118C128.729 142.925 128.46 142.766 128.135 142.643C127.819 142.511 127.463 142.446 127.067 142.446ZM134.028 154.192V153.599L134.674 153.52C135.026 153.485 135.272 153.423 135.413 153.335C135.562 153.247 135.672 153.072 135.742 152.808C135.821 152.544 135.861 152.122 135.861 151.542V146.308C135.861 144.858 135.821 143.931 135.742 143.527C135.672 143.114 135.461 142.907 135.109 142.907C135.057 142.907 134.982 142.911 134.885 142.92C134.789 142.929 134.736 142.933 134.727 142.933L134.134 143.092L134.028 142.446C136.103 141.813 137.496 141.496 138.208 141.496V143.197C139.447 142.063 140.827 141.496 142.347 141.496C142.936 141.496 143.455 141.562 143.903 141.694C144.351 141.817 144.72 141.962 145.01 142.129C145.309 142.296 145.56 142.555 145.762 142.907C145.964 143.25 146.118 143.557 146.223 143.83C146.329 144.094 146.403 144.48 146.447 144.99C146.5 145.491 146.531 145.891 146.54 146.19C146.548 146.489 146.553 146.932 146.553 147.521V151.542C146.553 152.131 146.588 152.557 146.658 152.821C146.729 153.076 146.838 153.247 146.988 153.335C147.137 153.423 147.396 153.485 147.766 153.52L148.385 153.599V154.192H142.374V153.599L143.02 153.52C143.371 153.485 143.617 153.423 143.758 153.335C143.907 153.247 144.017 153.072 144.087 152.808C144.167 152.544 144.206 152.122 144.206 151.542V147.93C144.206 147.367 144.197 146.941 144.18 146.651C144.171 146.352 144.14 145.966 144.087 145.491C144.035 145.008 143.938 144.638 143.797 144.384C143.666 144.12 143.485 143.847 143.257 143.566C143.028 143.285 142.721 143.083 142.334 142.96C141.956 142.837 141.508 142.775 140.989 142.775C139.899 142.775 138.972 143.259 138.208 144.225V151.542C138.208 152.131 138.243 152.557 138.313 152.821C138.383 153.076 138.493 153.247 138.643 153.335C138.792 153.423 139.051 153.485 139.42 153.52L140.053 153.599V154.192H134.028ZM157.561 153.085L157.732 153.704C157.706 153.713 157.614 153.753 157.456 153.823C157.306 153.893 157.166 153.955 157.034 154.008C156.902 154.06 156.726 154.126 156.506 154.205C156.287 154.284 156.076 154.35 155.874 154.403C155.68 154.456 155.46 154.5 155.214 154.535C154.977 154.579 154.753 154.601 154.542 154.601C154.252 154.601 153.988 154.588 153.751 154.561C153.514 154.535 153.298 154.487 153.105 154.416C152.92 154.346 152.753 154.271 152.604 154.192C152.463 154.122 152.336 154.016 152.222 153.876C152.116 153.735 152.024 153.603 151.945 153.48C151.875 153.357 151.813 153.19 151.76 152.979C151.716 152.76 151.677 152.566 151.642 152.399C151.615 152.232 151.593 152.008 151.576 151.727C151.567 151.437 151.558 151.186 151.549 150.975C151.549 150.756 151.549 150.47 151.549 150.118V143.039C150.662 142.995 149.958 142.907 149.44 142.775V142.182C149.686 142.164 150.055 142.12 150.547 142.05C151.04 141.971 151.374 141.923 151.549 141.905V141.154C152.165 140.371 152.947 139.589 153.896 138.807L154.212 138.939C154.001 140.31 153.896 141.299 153.896 141.905C154.16 141.923 154.647 141.971 155.359 142.05C156.071 142.12 156.537 142.164 156.757 142.182V142.775C156.282 142.898 155.329 142.986 153.896 143.039V148.879C153.896 149.292 153.896 149.604 153.896 149.815C153.905 150.026 153.922 150.316 153.949 150.685C153.975 151.054 154.015 151.34 154.067 151.542C154.129 151.744 154.212 151.977 154.318 152.241C154.432 152.496 154.568 152.694 154.727 152.834C154.894 152.966 155.1 153.08 155.346 153.177C155.592 153.274 155.874 153.322 156.19 153.322C156.612 153.322 157.069 153.243 157.561 153.085Z" fill="#2C2C2C"/>
<path d="M30.4976 126.24H127.502V127.584H30.4976V126.24ZM0.478516 158.24H157.508V159.584H0.478516V158.24Z" fill="#2C2C2C"/>
<defs>
<clipPath id="clip0_681_128">
<rect width="56.5186" height="66.7947" fill="white" transform="translate(50.7407)"/>
</clipPath>
</defs>
</svg>
