<svg width="103" height="160" viewBox="0 0 103 160" fill="none" xmlns="http://www.w3.org/2000/svg">
<path d="M69.6668 22.7728C69.6668 17.9547 67.7528 13.3339 64.3459 9.92703C60.939 6.52012 56.3182 4.60613 51.5001 4.60613C46.682 4.60613 42.0612 6.52012 38.6543 9.92703C35.2474 13.3339 33.3334 17.9547 33.3334 22.7728C33.3334 30.2252 39.2961 39.9383 51.5001 51.5731C63.7041 39.9383 69.6668 30.2252 69.6668 22.7728ZM51.5001 57.0877C36.6963 43.6322 29.2964 32.1912 29.2964 22.7728C29.2964 16.884 31.6357 11.2364 35.7997 7.07241C39.9637 2.90841 45.6113 0.569092 51.5001 0.569092C57.3889 0.569092 63.0365 2.90841 67.2005 7.07241C71.3645 11.2364 73.7038 16.884 73.7038 22.7728C73.7038 32.1912 66.3039 43.6322 51.5001 57.0877Z" fill="#C7B36C"/>
<path d="M51.5013 28.8283C53.1073 28.8283 54.6476 28.1903 55.7832 27.0547C56.9189 25.9191 57.5569 24.3788 57.5569 22.7728C57.5569 21.1667 56.9189 19.6265 55.7832 18.4908C54.6476 17.3552 53.1073 16.7172 51.5013 16.7172C49.8953 16.7172 48.355 17.3552 47.2194 18.4908C46.0837 19.6265 45.4457 21.1667 45.4457 22.7728C45.4457 24.3788 46.0837 25.9191 47.2194 27.0547C48.355 28.1903 49.8953 28.8283 51.5013 28.8283V28.8283ZM51.5013 32.8654C48.8246 32.8654 46.2575 31.8021 44.3647 29.9093C42.472 28.0166 41.4087 25.4495 41.4087 22.7728C41.4087 20.0961 42.472 17.529 44.3647 15.6362C46.2575 13.7435 48.8246 12.6802 51.5013 12.6802C54.178 12.6802 56.7451 13.7435 58.6378 15.6362C60.5306 17.529 61.5939 20.0961 61.5939 22.7728C61.5939 25.4495 60.5306 28.0166 58.6378 29.9093C56.7451 31.8021 54.178 32.8654 51.5013 32.8654Z" fill="#C7B36C"/>
<path d="M28.3101 106.549L29.7866 107.393C30.9468 108.052 31.7378 108.548 32.1597 108.882C33.311 109.796 33.957 110.935 34.0977 112.297C34.124 112.517 34.1372 112.745 34.1372 112.982C34.1372 113.686 34.0098 114.327 33.7549 114.907C33.5088 115.479 33.1792 115.958 32.7661 116.344C32.353 116.722 31.874 117.043 31.3291 117.307C30.7842 117.562 30.2217 117.746 29.6416 117.86C29.0703 117.975 28.4902 118.032 27.9014 118.032C26.2314 118.032 24.8164 117.671 23.6562 116.951C23.4102 116.423 23.2036 115.711 23.0366 114.815C22.8784 113.91 22.7993 113.035 22.7993 112.191L23.6562 111.98C23.7266 112.438 23.8188 112.868 23.9331 113.272C24.0474 113.677 24.2275 114.129 24.4736 114.63C24.7285 115.123 25.0273 115.544 25.3701 115.896C25.7217 116.239 26.1787 116.533 26.7412 116.779C27.3125 117.017 27.9497 117.135 28.6528 117.135C29.6108 117.135 30.3887 116.841 30.9863 116.252C31.5928 115.654 31.896 114.841 31.896 113.813C31.896 112.099 30.6436 110.68 28.1387 109.555L26.4116 108.605C25.5767 108.157 24.8735 107.529 24.3022 106.72C23.731 105.912 23.4453 105.028 23.4453 104.07C23.4453 103.279 23.5991 102.576 23.9067 101.961C24.2231 101.346 24.6494 100.858 25.1855 100.498C25.7217 100.128 26.3149 99.856 26.9653 99.6802C27.6245 99.4956 28.3232 99.4033 29.0615 99.4033C29.8438 99.4033 30.5645 99.4868 31.2236 99.6538C31.8828 99.8208 32.4058 100.023 32.7925 100.26C32.9683 100.99 33.0562 102.233 33.0562 103.991H32.3838C32.3311 103.719 32.2871 103.508 32.252 103.358C32.2168 103.2 32.1509 102.972 32.0542 102.673C31.9575 102.374 31.8564 102.137 31.751 101.961C31.6455 101.776 31.4961 101.565 31.3027 101.328C31.1094 101.091 30.894 100.906 30.6567 100.774C30.4194 100.643 30.125 100.528 29.7734 100.432C29.4307 100.335 29.0483 100.287 28.6265 100.287C27.8179 100.287 27.1235 100.559 26.5435 101.104C25.9722 101.64 25.6865 102.348 25.6865 103.227C25.6865 103.956 25.9062 104.562 26.3457 105.046C26.7852 105.529 27.4399 106.03 28.3101 106.549ZM43.8008 116.516L43.9722 117.135C43.9458 117.144 43.8535 117.184 43.6953 117.254C43.5459 117.324 43.4053 117.386 43.2734 117.438C43.1416 117.491 42.9658 117.557 42.7461 117.636C42.5264 117.715 42.3154 117.781 42.1133 117.834C41.9199 117.887 41.7002 117.931 41.4541 117.966C41.2168 118.01 40.9927 118.032 40.7817 118.032C40.4917 118.032 40.228 118.019 39.9907 117.992C39.7534 117.966 39.5381 117.917 39.3447 117.847C39.1602 117.777 38.9932 117.702 38.8438 117.623C38.7031 117.553 38.5757 117.447 38.4614 117.307C38.356 117.166 38.2637 117.034 38.1846 116.911C38.1143 116.788 38.0527 116.621 38 116.41C37.9561 116.19 37.9165 115.997 37.8813 115.83C37.855 115.663 37.833 115.439 37.8154 115.158C37.8066 114.868 37.7979 114.617 37.7891 114.406C37.7891 114.187 37.7891 113.901 37.7891 113.549V106.47C36.9014 106.426 36.1982 106.338 35.6797 106.206V105.613C35.9258 105.595 36.2949 105.551 36.7871 105.481C37.2793 105.402 37.6133 105.354 37.7891 105.336V104.584C38.4043 103.802 39.1865 103.02 40.1357 102.238L40.4521 102.37C40.2412 103.741 40.1357 104.729 40.1357 105.336C40.3994 105.354 40.8872 105.402 41.5991 105.481C42.311 105.551 42.7769 105.595 42.9966 105.613V106.206C42.522 106.329 41.5684 106.417 40.1357 106.47V112.31C40.1357 112.723 40.1357 113.035 40.1357 113.246C40.1445 113.457 40.1621 113.747 40.1885 114.116C40.2148 114.485 40.2544 114.771 40.3071 114.973C40.3687 115.175 40.4521 115.408 40.5576 115.672C40.6719 115.927 40.8081 116.125 40.9663 116.265C41.1333 116.397 41.3398 116.511 41.5859 116.608C41.832 116.705 42.1133 116.753 42.4297 116.753C42.8516 116.753 43.3086 116.674 43.8008 116.516ZM51.4341 118.032C50.564 118.032 49.7422 117.896 48.9688 117.623C48.2041 117.359 47.5186 116.973 46.9121 116.463C46.3057 115.953 45.8267 115.29 45.4751 114.472C45.1235 113.655 44.9478 112.732 44.9478 111.704C44.9478 110.833 45.0708 110.029 45.3169 109.291C45.563 108.544 45.897 107.907 46.3188 107.379C46.7407 106.852 47.2329 106.404 47.7954 106.035C48.3667 105.657 48.9688 105.38 49.6016 105.204C50.2432 105.02 50.8979 104.927 51.5659 104.927C53.4995 104.927 55.064 105.499 56.2593 106.641C57.4634 107.775 58.0654 109.273 58.0654 111.137C58.0654 112.262 57.8809 113.272 57.5117 114.169C57.1514 115.065 56.6592 115.791 56.0352 116.344C55.4111 116.898 54.708 117.32 53.9258 117.61C53.1436 117.891 52.313 118.032 51.4341 118.032ZM47.4395 111.387C47.4395 112.152 47.5273 112.873 47.7031 113.549C47.8877 114.217 48.1558 114.819 48.5073 115.355C48.8677 115.892 49.3335 116.313 49.9048 116.621C50.4849 116.929 51.144 117.083 51.8823 117.083C53.0601 117.083 53.9697 116.59 54.6113 115.606C55.2617 114.622 55.5869 113.378 55.5869 111.875C55.5869 111.04 55.5034 110.275 55.3364 109.581C55.1782 108.878 54.9277 108.245 54.585 107.683C54.251 107.111 53.7939 106.667 53.2139 106.351C52.6426 106.035 51.9746 105.876 51.21 105.876C50.542 105.876 49.9531 106.039 49.4434 106.364C48.9336 106.689 48.5381 107.125 48.2568 107.669C47.9844 108.214 47.7778 108.799 47.6372 109.423C47.5054 110.047 47.4395 110.702 47.4395 111.387ZM60.2144 117.623V117.03L60.8604 116.951C61.1504 116.916 61.3481 116.885 61.4536 116.858C61.5679 116.832 61.6821 116.753 61.7964 116.621C61.9106 116.489 61.981 116.3 62.0073 116.054C62.0337 115.808 62.0469 115.448 62.0469 114.973V109.713C62.0469 108.219 62.0117 107.283 61.9414 106.905C61.8711 106.527 61.6558 106.338 61.2954 106.338C61.2339 106.338 61.1636 106.347 61.0845 106.364C61.0142 106.382 60.9307 106.408 60.834 106.443C60.7461 106.47 60.6802 106.487 60.6362 106.496L60.3989 106.575L60.188 105.929C60.9175 105.666 61.6646 105.433 62.4292 105.23C63.1938 105.028 63.752 104.927 64.1035 104.927C64.2266 105.463 64.2881 106.052 64.2881 106.694C64.8682 106.07 65.3647 105.635 65.7778 105.389C66.2788 105.081 66.7622 104.927 67.228 104.927C67.3599 104.927 67.5005 104.945 67.6499 104.98C67.7993 105.015 67.9312 105.055 68.0454 105.099C68.1597 105.134 68.2915 105.191 68.4409 105.27C68.5903 105.34 68.7002 105.397 68.7705 105.441C68.8408 105.477 68.9375 105.534 69.0605 105.613C69.1924 105.692 69.2671 105.736 69.2847 105.745C68.9507 106.307 68.4893 106.821 67.9004 107.287C66.749 106.892 66.0107 106.694 65.6855 106.694C65.29 106.694 64.9736 106.808 64.7363 107.037C64.5078 107.265 64.3936 107.498 64.3936 107.735V114.973C64.3936 115.298 64.3979 115.562 64.4067 115.764C64.4155 115.958 64.4507 116.133 64.5122 116.292C64.5737 116.441 64.6265 116.551 64.6704 116.621C64.7144 116.691 64.8154 116.753 64.9736 116.806C65.1406 116.858 65.2856 116.894 65.4087 116.911C65.5317 116.92 65.7427 116.933 66.0415 116.951L66.6611 117.03V117.623H60.2144ZM80.4248 115.896L80.7412 116.516C80.4072 116.832 79.8052 117.166 78.9351 117.518C78.0649 117.86 77.0938 118.032 76.0215 118.032C74.8789 118.032 73.8418 117.794 72.9102 117.32C71.9873 116.845 71.2446 116.138 70.6821 115.197C70.1196 114.257 69.8384 113.167 69.8384 111.928C69.8384 110.829 70.0186 109.827 70.3789 108.922C70.7393 108.017 71.2139 107.278 71.8027 106.707C72.4004 106.136 73.0684 105.696 73.8066 105.389C74.5449 105.081 75.3096 104.927 76.1006 104.927C76.6016 104.927 77.063 104.98 77.4849 105.085C77.9067 105.191 78.2627 105.323 78.5527 105.481C78.8516 105.639 79.124 105.841 79.3701 106.087C79.625 106.333 79.8271 106.566 79.9766 106.786C80.126 107.006 80.2622 107.27 80.3853 107.577C80.5171 107.876 80.6138 108.126 80.6753 108.329C80.7368 108.522 80.7983 108.75 80.8599 109.014C78.5659 110.148 75.7183 111.11 72.3169 111.901C72.3433 112.262 72.4136 112.644 72.5278 113.048C72.6421 113.453 72.8311 113.879 73.0947 114.327C73.3584 114.775 73.6748 115.175 74.0439 115.527C74.4131 115.878 74.8833 116.173 75.4546 116.41C76.0347 116.639 76.6719 116.753 77.3662 116.753C77.6299 116.753 77.8892 116.735 78.144 116.7C78.3989 116.665 78.6187 116.625 78.8032 116.582C78.9878 116.529 79.1768 116.467 79.3701 116.397C79.5723 116.318 79.7217 116.256 79.8184 116.212C79.9238 116.16 80.0425 116.098 80.1743 116.028C80.3149 115.949 80.3984 115.905 80.4248 115.896ZM75.3228 105.876C74.7778 105.876 74.2988 106.035 73.8857 106.351C73.4814 106.659 73.1694 107.063 72.9497 107.564C72.73 108.065 72.5674 108.583 72.4619 109.12C72.3652 109.647 72.3169 110.179 72.3169 110.715C74.4526 110.319 76.4873 109.805 78.4209 109.172C78.333 108.794 78.2407 108.465 78.144 108.184C78.0562 107.894 77.9287 107.599 77.7617 107.3C77.5947 106.993 77.4058 106.742 77.1948 106.549C76.9839 106.355 76.7158 106.197 76.3906 106.074C76.0742 105.942 75.7183 105.876 75.3228 105.876ZM1.7583 149.623V149.03L2.73389 148.951C3.25244 148.898 3.55566 148.713 3.64355 148.397C3.74023 148.081 3.78857 147.087 3.78857 145.417V136.018C3.78857 134.348 3.74023 133.354 3.64355 133.038C3.55566 132.722 3.25244 132.537 2.73389 132.484L1.7583 132.392V131.799H8.32373V132.392L7.34814 132.484C6.82959 132.537 6.52197 132.722 6.42529 133.038C6.3374 133.354 6.29346 134.348 6.29346 136.018V148.542C7.64697 148.762 8.63135 148.872 9.24658 148.872C10.0024 148.872 10.6484 148.806 11.1846 148.674C11.7207 148.542 12.1382 148.393 12.437 148.226C12.7358 148.059 12.9951 147.786 13.2148 147.408C13.4434 147.021 13.5972 146.705 13.6763 146.459C13.7554 146.204 13.8608 145.8 13.9927 145.246C14.0015 145.22 14.0059 145.202 14.0059 145.193C14.0146 145.176 14.019 145.158 14.019 145.141C14.0278 145.123 14.0322 145.105 14.0322 145.088C14.041 145.07 14.0454 145.053 14.0454 145.035L14.7178 145.141C14.6826 145.932 14.5947 146.661 14.4541 147.329C14.3135 147.988 14.1069 148.753 13.8345 149.623H1.7583ZM22.1665 150.032C21.2964 150.032 20.4746 149.896 19.7012 149.623C18.9365 149.359 18.251 148.973 17.6445 148.463C17.0381 147.953 16.5591 147.29 16.2075 146.472C15.856 145.655 15.6802 144.732 15.6802 143.704C15.6802 142.833 15.8032 142.029 16.0493 141.291C16.2954 140.544 16.6294 139.907 17.0513 139.379C17.4731 138.852 17.9653 138.404 18.5278 138.035C19.0991 137.657 19.7012 137.38 20.334 137.204C20.9756 137.02 21.6304 136.927 22.2983 136.927C24.2319 136.927 25.7964 137.499 26.9917 138.641C28.1958 139.775 28.7979 141.273 28.7979 143.137C28.7979 144.262 28.6133 145.272 28.2441 146.169C27.8838 147.065 27.3916 147.791 26.7676 148.344C26.1436 148.898 25.4404 149.32 24.6582 149.61C23.876 149.891 23.0454 150.032 22.1665 150.032ZM18.1719 143.387C18.1719 144.152 18.2598 144.873 18.4355 145.549C18.6201 146.217 18.8882 146.819 19.2397 147.355C19.6001 147.892 20.0659 148.313 20.6372 148.621C21.2173 148.929 21.8765 149.083 22.6147 149.083C23.7925 149.083 24.7021 148.59 25.3438 147.606C25.9941 146.622 26.3193 145.378 26.3193 143.875C26.3193 143.04 26.2358 142.275 26.0688 141.581C25.9106 140.878 25.6602 140.245 25.3174 139.683C24.9834 139.111 24.5264 138.667 23.9463 138.351C23.375 138.035 22.707 137.876 21.9424 137.876C21.2744 137.876 20.6855 138.039 20.1758 138.364C19.666 138.689 19.2705 139.125 18.9893 139.669C18.7168 140.214 18.5103 140.799 18.3696 141.423C18.2378 142.047 18.1719 142.702 18.1719 143.387ZM41.4146 148.252L41.6387 148.898C40.6104 149.654 39.1865 150.032 37.3672 150.032C36.5762 150.032 35.8115 149.913 35.0732 149.676C34.3438 149.447 33.6758 149.109 33.0693 148.661C32.4717 148.204 31.9883 147.602 31.6191 146.854C31.2588 146.107 31.0786 145.268 31.0786 144.336C31.0786 143.334 31.2148 142.416 31.4873 141.581C31.7598 140.746 32.1201 140.047 32.5684 139.485C33.0254 138.922 33.5527 138.443 34.1504 138.048C34.7568 137.652 35.3853 137.367 36.0356 137.191C36.686 137.015 37.3452 136.927 38.0132 136.927C38.6636 136.927 39.27 136.998 39.8325 137.138C40.4038 137.279 40.8433 137.472 41.1509 137.718C41.1509 138.325 40.918 138.979 40.4521 139.683H40.2808C40.0083 139.305 39.6084 138.966 39.0811 138.667C38.5625 138.36 37.9121 138.206 37.1299 138.206C36.1104 138.206 35.2578 138.606 34.5723 139.406C33.8955 140.206 33.5571 141.335 33.5571 142.794C33.5571 144.859 34.0361 146.424 34.9941 147.487C35.9521 148.551 37.231 149.083 38.8306 149.083C39.5513 149.083 40.4126 148.806 41.4146 148.252ZM50.0498 148.516L50.2212 149.135C50.1948 149.144 50.1025 149.184 49.9443 149.254C49.7949 149.324 49.6543 149.386 49.5225 149.438C49.3906 149.491 49.2148 149.557 48.9951 149.636C48.7754 149.715 48.5645 149.781 48.3623 149.834C48.1689 149.887 47.9492 149.931 47.7031 149.966C47.4658 150.01 47.2417 150.032 47.0308 150.032C46.7407 150.032 46.4771 150.019 46.2397 149.992C46.0024 149.966 45.7871 149.917 45.5938 149.847C45.4092 149.777 45.2422 149.702 45.0928 149.623C44.9521 149.553 44.8247 149.447 44.7104 149.307C44.605 149.166 44.5127 149.034 44.4336 148.911C44.3633 148.788 44.3018 148.621 44.249 148.41C44.2051 148.19 44.1655 147.997 44.1304 147.83C44.104 147.663 44.082 147.439 44.0645 147.158C44.0557 146.868 44.0469 146.617 44.0381 146.406C44.0381 146.187 44.0381 145.901 44.0381 145.549V138.47C43.1504 138.426 42.4473 138.338 41.9287 138.206V137.613C42.1748 137.595 42.5439 137.551 43.0361 137.481C43.5283 137.402 43.8623 137.354 44.0381 137.336V136.584C44.6533 135.802 45.4355 135.02 46.3848 134.238L46.7012 134.37C46.4902 135.741 46.3848 136.729 46.3848 137.336C46.6484 137.354 47.1362 137.402 47.8481 137.481C48.5601 137.551 49.0259 137.595 49.2456 137.613V138.206C48.771 138.329 47.8174 138.417 46.3848 138.47V144.31C46.3848 144.723 46.3848 145.035 46.3848 145.246C46.3936 145.457 46.4111 145.747 46.4375 146.116C46.4639 146.485 46.5034 146.771 46.5562 146.973C46.6177 147.175 46.7012 147.408 46.8066 147.672C46.9209 147.927 47.0571 148.125 47.2153 148.265C47.3823 148.397 47.5889 148.511 47.835 148.608C48.0811 148.705 48.3623 148.753 48.6787 148.753C49.1006 148.753 49.5576 148.674 50.0498 148.516ZM62.6138 148.977L62.7588 149.359C62.5479 149.5 62.394 149.597 62.2974 149.649C62.2007 149.711 61.9941 149.79 61.6777 149.887C61.3701 149.983 61.0449 150.032 60.7021 150.032C59.6299 150.032 58.918 149.654 58.5664 148.898C58.2061 149.135 57.8853 149.324 57.604 149.465C57.3228 149.597 56.9141 149.724 56.3779 149.847C55.8506 149.97 55.2573 150.032 54.5981 150.032C53.605 150.032 52.7964 149.786 52.1724 149.293C51.5571 148.792 51.2495 148.164 51.2495 147.408C51.2495 146.89 51.3462 146.406 51.5396 145.958C51.7417 145.51 52.0229 145.123 52.3833 144.798C52.7524 144.464 53.1436 144.169 53.5566 143.915C53.9697 143.651 54.4399 143.418 54.9673 143.216C55.4946 143.014 55.9692 142.847 56.3911 142.715C56.8218 142.574 57.27 142.438 57.7358 142.306C57.9995 142.236 58.1885 142.183 58.3027 142.148V141.528C58.3027 141.045 58.2632 140.619 58.1841 140.25C58.1138 139.88 57.9863 139.533 57.8018 139.208C57.626 138.883 57.3667 138.637 57.0239 138.47C56.6899 138.294 56.2769 138.206 55.7847 138.206C55.5737 138.206 55.3716 138.224 55.1782 138.259C54.9849 138.294 54.8091 138.338 54.6509 138.391C54.5015 138.435 54.3521 138.509 54.2026 138.615C54.0532 138.711 53.9258 138.795 53.8203 138.865C53.7236 138.927 53.6138 139.032 53.4907 139.182C53.3677 139.331 53.2754 139.441 53.2139 139.511C53.1523 139.582 53.0688 139.705 52.9634 139.88C52.8667 140.047 52.8008 140.162 52.7656 140.223C52.7393 140.285 52.6821 140.408 52.5942 140.592C52.5063 140.768 52.4536 140.869 52.436 140.896H52.2251C51.8911 140.535 51.6582 140.179 51.5264 139.828C52.9678 137.894 54.7651 136.927 56.9185 136.927C57.6743 136.927 58.2983 137.024 58.7905 137.217C59.2915 137.402 59.6738 137.696 59.9375 138.101C60.21 138.496 60.3945 138.944 60.4912 139.445C60.5967 139.946 60.6494 140.566 60.6494 141.304V145.167C60.6494 145.483 60.6494 145.725 60.6494 145.892C60.6582 146.05 60.667 146.274 60.6758 146.564C60.6846 146.854 60.7021 147.083 60.7285 147.25C60.7549 147.408 60.79 147.602 60.834 147.83C60.8779 148.05 60.9351 148.226 61.0054 148.357C61.0845 148.48 61.1724 148.608 61.269 148.74C61.3745 148.863 61.4976 148.951 61.6382 149.003C61.7876 149.056 61.9546 149.083 62.1392 149.083C62.3149 149.083 62.4731 149.047 62.6138 148.977ZM58.3027 143.414H57.9204C57.4897 143.414 57.0503 143.466 56.6021 143.572C56.1626 143.668 55.7144 143.831 55.2573 144.06C54.8091 144.288 54.4443 144.626 54.1631 145.075C53.8818 145.514 53.7412 146.033 53.7412 146.63C53.7412 147.395 53.9653 147.997 54.4136 148.437C54.8618 148.867 55.4727 149.083 56.2461 149.083C56.6064 149.083 56.9448 149.003 57.2612 148.845C57.5864 148.678 57.8149 148.529 57.9468 148.397C58.0874 148.256 58.2061 148.116 58.3027 147.975V143.414ZM64.1431 149.623V149.03L64.7891 148.951C65.0703 148.916 65.2681 148.885 65.3823 148.858C65.5054 148.823 65.6196 148.74 65.7251 148.608C65.8394 148.467 65.9097 148.274 65.936 148.028C65.9624 147.782 65.9756 147.43 65.9756 146.973V141.739C65.9756 140.289 65.936 139.362 65.8569 138.958C65.7866 138.544 65.5757 138.338 65.2241 138.338C65.1714 138.338 65.0967 138.342 65 138.351C64.9033 138.36 64.8506 138.364 64.8418 138.364L64.2485 138.522L64.1431 137.876C66.2173 137.244 67.6104 136.927 68.3223 136.927V146.973C68.3223 147.58 68.3574 148.015 68.4277 148.278C68.5068 148.542 68.6167 148.709 68.7573 148.779C68.9067 148.85 69.1704 148.907 69.5483 148.951L70.168 149.03V149.623H64.1431ZM67.9531 133.407C67.6631 133.706 67.3027 133.855 66.8721 133.855C66.4414 133.855 66.0811 133.706 65.791 133.407C65.501 133.1 65.356 132.744 65.356 132.339C65.356 131.926 65.4966 131.575 65.7778 131.285C66.0679 130.986 66.4326 130.836 66.8721 130.836C67.3115 130.836 67.6719 130.986 67.9531 131.285C68.2432 131.575 68.3882 131.926 68.3882 132.339C68.3882 132.744 68.2432 133.1 67.9531 133.407ZM78.6714 150.032C77.8013 150.032 76.9795 149.896 76.2061 149.623C75.4414 149.359 74.7559 148.973 74.1494 148.463C73.543 147.953 73.064 147.29 72.7124 146.472C72.3608 145.655 72.1851 144.732 72.1851 143.704C72.1851 142.833 72.3081 142.029 72.5542 141.291C72.8003 140.544 73.1343 139.907 73.5562 139.379C73.978 138.852 74.4702 138.404 75.0327 138.035C75.604 137.657 76.2061 137.38 76.8389 137.204C77.4805 137.02 78.1353 136.927 78.8032 136.927C80.7368 136.927 82.3013 137.499 83.4966 138.641C84.7007 139.775 85.3027 141.273 85.3027 143.137C85.3027 144.262 85.1182 145.272 84.749 146.169C84.3887 147.065 83.8965 147.791 83.2725 148.344C82.6484 148.898 81.9453 149.32 81.1631 149.61C80.3809 149.891 79.5503 150.032 78.6714 150.032ZM74.6768 143.387C74.6768 144.152 74.7646 144.873 74.9404 145.549C75.125 146.217 75.3931 146.819 75.7446 147.355C76.105 147.892 76.5708 148.313 77.1421 148.621C77.7222 148.929 78.3813 149.083 79.1196 149.083C80.2974 149.083 81.207 148.59 81.8486 147.606C82.499 146.622 82.8242 145.378 82.8242 143.875C82.8242 143.04 82.7407 142.275 82.5737 141.581C82.4155 140.878 82.165 140.245 81.8223 139.683C81.4883 139.111 81.0312 138.667 80.4512 138.351C79.8799 138.035 79.2119 137.876 78.4473 137.876C77.7793 137.876 77.1904 138.039 76.6807 138.364C76.1709 138.689 75.7754 139.125 75.4941 139.669C75.2217 140.214 75.0151 140.799 74.8745 141.423C74.7427 142.047 74.6768 142.702 74.6768 143.387ZM87.5308 149.623V149.03L88.1768 148.951C88.5283 148.916 88.7744 148.854 88.915 148.766C89.0645 148.678 89.1743 148.502 89.2446 148.239C89.3237 147.975 89.3633 147.553 89.3633 146.973V141.739C89.3633 140.289 89.3237 139.362 89.2446 138.958C89.1743 138.544 88.9634 138.338 88.6118 138.338C88.5591 138.338 88.4844 138.342 88.3877 138.351C88.291 138.36 88.2383 138.364 88.2295 138.364L87.6362 138.522L87.5308 137.876C89.605 137.244 90.998 136.927 91.71 136.927V138.628C92.9492 137.494 94.3291 136.927 95.8496 136.927C96.4385 136.927 96.957 136.993 97.4053 137.125C97.8535 137.248 98.2227 137.393 98.5127 137.56C98.8115 137.727 99.062 137.986 99.2642 138.338C99.4663 138.681 99.6201 138.988 99.7256 139.261C99.8311 139.524 99.9058 139.911 99.9497 140.421C100.002 140.922 100.033 141.322 100.042 141.621C100.051 141.919 100.055 142.363 100.055 142.952V146.973C100.055 147.562 100.09 147.988 100.161 148.252C100.231 148.507 100.341 148.678 100.49 148.766C100.64 148.854 100.899 148.916 101.268 148.951L101.888 149.03V149.623H95.876V149.03L96.522 148.951C96.8735 148.916 97.1196 148.854 97.2603 148.766C97.4097 148.678 97.5195 148.502 97.5898 148.239C97.6689 147.975 97.7085 147.553 97.7085 146.973V143.361C97.7085 142.798 97.6997 142.372 97.6821 142.082C97.6733 141.783 97.6426 141.396 97.5898 140.922C97.5371 140.438 97.4404 140.069 97.2998 139.814C97.168 139.551 96.9878 139.278 96.7593 138.997C96.5308 138.716 96.2231 138.514 95.8364 138.391C95.4585 138.268 95.0103 138.206 94.4917 138.206C93.4019 138.206 92.4746 138.689 91.71 139.656V146.973C91.71 147.562 91.7451 147.988 91.8154 148.252C91.8857 148.507 91.9956 148.678 92.145 148.766C92.2944 148.854 92.5537 148.916 92.9229 148.951L93.5557 149.03V149.623H87.5308Z" fill="#2C2C2C"/>
<path d="M21.7446 121.67H81.2554V123.015H21.7446V121.67ZM0.492676 153.67H102.507V155.015H0.492676V153.67Z" fill="#2C2C2C"/>
</svg>
