<svg width="130" height="165" viewBox="0 0 130 165" fill="none" xmlns="http://www.w3.org/2000/svg">
<g clip-path="url(#clip0_681_117)">
<path d="M92.0686 27.8025C90.883 12.2537 79.1962 0 64.9996 0C50.8031 0 39.1163 12.2537 37.9307 27.8025C34.2199 29.4501 31.6023 33.5175 31.6023 38.237C31.6023 41.8411 33.1267 45.0504 35.4979 47.1098V54.6783C35.4979 59.0031 38.639 62.5213 42.5346 62.5213H59.3179C60.2726 65.1471 62.6592 66.9663 65.4154 66.7947C68.4641 66.6059 70.9739 63.9286 71.2049 60.5305C71.4512 56.5833 68.6027 53.271 65.0612 53.271C62.459 53.271 60.2418 55.0387 59.3333 57.5443H42.4576C41.0872 57.5443 39.9632 56.2915 39.9632 54.7641V49.3237C40.4867 49.4267 41.041 49.4782 41.5953 49.4782H49.4019C50.6491 49.4782 51.6653 48.3455 51.6653 46.9554V29.5187C51.6653 28.1286 50.6491 26.9959 49.4019 26.9959H42.5038C43.0581 22.3621 44.7518 18.1231 47.2462 14.6392H82.7992C85.2936 18.1231 86.972 22.3621 87.5263 26.9959H80.5666C79.3194 26.9959 78.3031 28.1286 78.3031 29.5187V46.9382C78.3031 48.3283 79.3194 49.461 80.5666 49.461H88.3424C93.8855 49.461 98.397 44.4154 98.397 38.2199C98.397 33.5175 95.764 29.4501 92.0686 27.8025ZM64.938 58.1622C65.8311 58.1622 66.5702 58.9859 66.5702 59.9813C66.5702 60.9767 65.8465 61.8005 64.938 61.8005C64.045 61.8005 63.3059 60.9767 63.3059 59.9813C63.3059 58.9859 64.045 58.1622 64.938 58.1622ZM77.8412 9.66223H52.0349C55.6995 6.83049 60.1494 5.14861 64.938 5.14861C69.7267 5.14861 74.1766 6.83049 77.8412 9.66223ZM39.3473 32.625V43.8662C37.4226 42.9051 36.083 40.7427 36.083 38.237C36.083 35.7485 37.4226 33.6033 39.3473 32.625ZM47.0461 44.5012H43.8126V32.1445H47.0461V44.5012ZM82.7684 32.1445H86.0019V44.5012H82.7684V32.1445ZM90.6212 43.8833V32.6422C92.5459 33.6033 93.8855 35.7657 93.8855 38.2714C93.8701 40.7599 92.5305 42.9051 90.6212 43.8833Z" fill="#C7B36C"/>
</g>
<path d="M17.5786 116.813L18.3037 116.984C18.1543 118.558 17.7852 120.087 17.1963 121.572C16.6953 121.81 15.9351 122.038 14.9155 122.258C13.896 122.486 12.8018 122.601 11.6328 122.601C10.5605 122.601 9.5498 122.5 8.60059 122.297C7.65137 122.104 6.7417 121.775 5.87158 121.309C5.01025 120.843 4.26758 120.263 3.64355 119.568C3.02832 118.865 2.53613 117.982 2.16699 116.919C1.79785 115.855 1.61328 114.66 1.61328 113.333C1.61328 112.331 1.72314 111.403 1.94287 110.551C2.17139 109.69 2.47461 108.947 2.85254 108.323C3.23926 107.69 3.70068 107.123 4.23682 106.622C4.77295 106.121 5.33545 105.708 5.92432 105.383C6.52197 105.058 7.15479 104.79 7.82275 104.579C8.49072 104.359 9.14111 104.205 9.77393 104.117C10.4155 104.021 11.0527 103.972 11.6855 103.972C12.9336 103.972 14.0542 104.091 15.0474 104.328C16.0493 104.566 16.7656 104.816 17.1963 105.08C17.4863 106.398 17.6313 107.73 17.6313 109.074L16.9062 109.233C16.8975 109.206 16.8667 109.083 16.814 108.863C16.77 108.635 16.7305 108.468 16.6953 108.362C16.6689 108.248 16.6118 108.068 16.5239 107.822C16.4448 107.567 16.3613 107.365 16.2734 107.215C16.1855 107.066 16.0625 106.877 15.9043 106.649C15.7549 106.411 15.5923 106.222 15.4165 106.082C15.2495 105.932 15.0342 105.774 14.7705 105.607C14.5156 105.431 14.2388 105.295 13.9399 105.198C13.6499 105.102 13.3071 105.023 12.9116 104.961C12.5249 104.891 12.1074 104.856 11.6592 104.856C9.42676 104.856 7.66455 105.559 6.37256 106.965C5.08936 108.362 4.44775 110.314 4.44775 112.818C4.44775 113.759 4.53564 114.66 4.71143 115.521C4.88721 116.374 5.16406 117.178 5.54199 117.934C5.92871 118.69 6.39453 119.349 6.93945 119.911C7.49316 120.465 8.16553 120.904 8.95654 121.23C9.74756 121.546 10.6221 121.704 11.5801 121.704C12.1602 121.704 12.6919 121.651 13.1753 121.546C13.6675 121.441 14.0806 121.326 14.4146 121.203C14.7573 121.08 15.0825 120.878 15.3901 120.597C15.6978 120.316 15.9351 120.087 16.1021 119.911C16.269 119.727 16.4536 119.437 16.6558 119.041C16.8579 118.637 16.9897 118.351 17.0513 118.184C17.1216 118.017 17.2402 117.71 17.4072 117.261C17.4336 117.2 17.4512 117.151 17.46 117.116C17.4775 117.072 17.4951 117.024 17.5127 116.971C17.5391 116.91 17.561 116.857 17.5786 116.813ZM26.3984 122.601C25.5283 122.601 24.7065 122.464 23.9331 122.192C23.1685 121.928 22.4829 121.542 21.8765 121.032C21.27 120.522 20.791 119.859 20.4395 119.041C20.0879 118.224 19.9121 117.301 19.9121 116.273C19.9121 115.402 20.0352 114.598 20.2812 113.86C20.5273 113.113 20.8613 112.476 21.2832 111.948C21.7051 111.421 22.1973 110.973 22.7598 110.604C23.3311 110.226 23.9331 109.949 24.5659 109.773C25.2075 109.589 25.8623 109.496 26.5303 109.496C28.4639 109.496 30.0283 110.068 31.2236 111.21C32.4277 112.344 33.0298 113.842 33.0298 115.706C33.0298 116.831 32.8452 117.841 32.4761 118.738C32.1157 119.634 31.6235 120.359 30.9995 120.913C30.3755 121.467 29.6724 121.889 28.8901 122.179C28.1079 122.46 27.2773 122.601 26.3984 122.601ZM22.4038 115.956C22.4038 116.721 22.4917 117.442 22.6675 118.118C22.8521 118.786 23.1201 119.388 23.4717 119.924C23.832 120.461 24.2979 120.882 24.8691 121.19C25.4492 121.498 26.1084 121.651 26.8467 121.651C28.0244 121.651 28.9341 121.159 29.5757 120.175C30.2261 119.191 30.5513 117.947 30.5513 116.444C30.5513 115.609 30.4678 114.844 30.3008 114.15C30.1426 113.447 29.8921 112.814 29.5493 112.252C29.2153 111.68 28.7583 111.236 28.1782 110.92C27.6069 110.604 26.939 110.445 26.1743 110.445C25.5063 110.445 24.9175 110.608 24.4077 110.933C23.8979 111.258 23.5024 111.693 23.2212 112.238C22.9487 112.783 22.7422 113.368 22.6016 113.992C22.4697 114.616 22.4038 115.271 22.4038 115.956ZM35.2578 122.192V121.599L35.9038 121.52C36.2554 121.484 36.5015 121.423 36.6421 121.335C36.7915 121.247 36.9014 121.071 36.9717 120.808C37.0508 120.544 37.0903 120.122 37.0903 119.542V114.308C37.0903 112.858 37.0508 111.931 36.9717 111.526C36.9014 111.113 36.6904 110.907 36.3389 110.907C36.2861 110.907 36.2114 110.911 36.1147 110.92C36.0181 110.929 35.9653 110.933 35.9565 110.933L35.3633 111.091L35.2578 110.445C37.332 109.813 38.7251 109.496 39.437 109.496V111.197C40.6763 110.063 42.0562 109.496 43.5767 109.496C44.1655 109.496 44.6841 109.562 45.1323 109.694C45.5806 109.817 45.9497 109.962 46.2397 110.129C46.5386 110.296 46.7891 110.555 46.9912 110.907C47.1934 111.25 47.3472 111.557 47.4526 111.83C47.5581 112.093 47.6328 112.48 47.6768 112.99C47.7295 113.491 47.7603 113.891 47.769 114.19C47.7778 114.488 47.7822 114.932 47.7822 115.521V119.542C47.7822 120.131 47.8174 120.557 47.8877 120.821C47.958 121.076 48.0679 121.247 48.2173 121.335C48.3667 121.423 48.626 121.484 48.9951 121.52L49.6147 121.599V122.192H43.603V121.599L44.249 121.52C44.6006 121.484 44.8467 121.423 44.9873 121.335C45.1367 121.247 45.2466 121.071 45.3169 120.808C45.396 120.544 45.4355 120.122 45.4355 119.542V115.93C45.4355 115.367 45.4268 114.941 45.4092 114.651C45.4004 114.352 45.3696 113.965 45.3169 113.491C45.2642 113.007 45.1675 112.638 45.0269 112.383C44.895 112.12 44.7148 111.847 44.4863 111.566C44.2578 111.285 43.9502 111.083 43.5635 110.96C43.1855 110.837 42.7373 110.775 42.2188 110.775C41.1289 110.775 40.2017 111.258 39.437 112.225V119.542C39.437 120.131 39.4722 120.557 39.5425 120.821C39.6128 121.076 39.7227 121.247 39.8721 121.335C40.0215 121.423 40.2808 121.484 40.6499 121.52L41.2827 121.599V122.192H35.2578ZM51.2627 122.192V121.599L51.9087 121.52C52.2603 121.484 52.5063 121.423 52.647 121.335C52.7964 121.247 52.9062 121.071 52.9766 120.808C53.0557 120.544 53.0952 120.122 53.0952 119.542V114.308C53.0952 112.858 53.0557 111.931 52.9766 111.526C52.9062 111.113 52.6953 110.907 52.3438 110.907C52.291 110.907 52.2163 110.911 52.1196 110.92C52.0229 110.929 51.9702 110.933 51.9614 110.933L51.3682 111.091L51.2627 110.445C53.3369 109.813 54.73 109.496 55.4419 109.496V111.197C56.6812 110.063 58.061 109.496 59.5815 109.496C60.1704 109.496 60.689 109.562 61.1372 109.694C61.5854 109.817 61.9546 109.962 62.2446 110.129C62.5435 110.296 62.7939 110.555 62.9961 110.907C63.1982 111.25 63.3521 111.557 63.4575 111.83C63.563 112.093 63.6377 112.48 63.6816 112.99C63.7344 113.491 63.7651 113.891 63.7739 114.19C63.7827 114.488 63.7871 114.932 63.7871 115.521V119.542C63.7871 120.131 63.8223 120.557 63.8926 120.821C63.9629 121.076 64.0728 121.247 64.2222 121.335C64.3716 121.423 64.6309 121.484 65 121.52L65.6196 121.599V122.192H59.6079V121.599L60.2539 121.52C60.6055 121.484 60.8516 121.423 60.9922 121.335C61.1416 121.247 61.2515 121.071 61.3218 120.808C61.4009 120.544 61.4404 120.122 61.4404 119.542V115.93C61.4404 115.367 61.4316 114.941 61.4141 114.651C61.4053 114.352 61.3745 113.965 61.3218 113.491C61.269 113.007 61.1724 112.638 61.0317 112.383C60.8999 112.12 60.7197 111.847 60.4912 111.566C60.2627 111.285 59.9551 111.083 59.5684 110.96C59.1904 110.837 58.7422 110.775 58.2236 110.775C57.1338 110.775 56.2065 111.258 55.4419 112.225V119.542C55.4419 120.131 55.4771 120.557 55.5474 120.821C55.6177 121.076 55.7275 121.247 55.877 121.335C56.0264 121.423 56.2856 121.484 56.6548 121.52L57.2876 121.599V122.192H51.2627ZM77.9067 120.465L78.2231 121.085C77.8892 121.401 77.2871 121.735 76.417 122.087C75.5469 122.429 74.5757 122.601 73.5034 122.601C72.3608 122.601 71.3237 122.363 70.3921 121.889C69.4692 121.414 68.7266 120.707 68.1641 119.766C67.6016 118.826 67.3203 117.736 67.3203 116.497C67.3203 115.398 67.5005 114.396 67.8608 113.491C68.2212 112.586 68.6958 111.847 69.2847 111.276C69.8823 110.705 70.5503 110.265 71.2886 109.958C72.0269 109.65 72.7915 109.496 73.5825 109.496C74.0835 109.496 74.5449 109.549 74.9668 109.654C75.3887 109.76 75.7446 109.892 76.0347 110.05C76.3335 110.208 76.606 110.41 76.8521 110.656C77.1069 110.902 77.3091 111.135 77.4585 111.355C77.6079 111.575 77.7441 111.839 77.8672 112.146C77.999 112.445 78.0957 112.695 78.1572 112.898C78.2188 113.091 78.2803 113.319 78.3418 113.583C76.0479 114.717 73.2002 115.679 69.7988 116.47C69.8252 116.831 69.8955 117.213 70.0098 117.617C70.124 118.022 70.313 118.448 70.5767 118.896C70.8403 119.344 71.1567 119.744 71.5259 120.096C71.895 120.447 72.3652 120.742 72.9365 120.979C73.5166 121.208 74.1538 121.322 74.8481 121.322C75.1118 121.322 75.3711 121.304 75.626 121.269C75.8809 121.234 76.1006 121.194 76.2852 121.151C76.4697 121.098 76.6587 121.036 76.8521 120.966C77.0542 120.887 77.2036 120.825 77.3003 120.781C77.4058 120.729 77.5244 120.667 77.6562 120.597C77.7969 120.518 77.8804 120.474 77.9067 120.465ZM72.8047 110.445C72.2598 110.445 71.7808 110.604 71.3677 110.92C70.9634 111.228 70.6514 111.632 70.4316 112.133C70.2119 112.634 70.0493 113.152 69.9438 113.689C69.8472 114.216 69.7988 114.748 69.7988 115.284C71.9346 114.888 73.9692 114.374 75.9028 113.741C75.8149 113.363 75.7227 113.034 75.626 112.753C75.5381 112.463 75.4106 112.168 75.2437 111.869C75.0767 111.562 74.8877 111.311 74.6768 111.118C74.4658 110.924 74.1978 110.766 73.8726 110.643C73.5562 110.511 73.2002 110.445 72.8047 110.445ZM90.1543 120.821L90.3784 121.467C89.3501 122.223 87.9263 122.601 86.1069 122.601C85.3159 122.601 84.5513 122.482 83.813 122.245C83.0835 122.016 82.4155 121.678 81.8091 121.23C81.2114 120.773 80.728 120.171 80.3589 119.423C79.9985 118.676 79.8184 117.837 79.8184 116.905C79.8184 115.903 79.9546 114.985 80.2271 114.15C80.4995 113.315 80.8599 112.616 81.3081 112.054C81.7651 111.491 82.2925 111.012 82.8901 110.617C83.4966 110.221 84.125 109.936 84.7754 109.76C85.4258 109.584 86.085 109.496 86.7529 109.496C87.4033 109.496 88.0098 109.567 88.5723 109.707C89.1436 109.848 89.583 110.041 89.8906 110.287C89.8906 110.894 89.6577 111.548 89.1919 112.252H89.0205C88.748 111.874 88.3481 111.535 87.8208 111.236C87.3022 110.929 86.6519 110.775 85.8696 110.775C84.8501 110.775 83.9976 111.175 83.312 111.975C82.6353 112.775 82.2969 113.904 82.2969 115.363C82.2969 117.428 82.7759 118.993 83.7339 120.056C84.6919 121.12 85.9707 121.651 87.5703 121.651C88.291 121.651 89.1523 121.375 90.1543 120.821ZM98.7896 121.085L98.9609 121.704C98.9346 121.713 98.8423 121.753 98.6841 121.823C98.5347 121.893 98.394 121.955 98.2622 122.007C98.1304 122.06 97.9546 122.126 97.7349 122.205C97.5151 122.284 97.3042 122.35 97.1021 122.403C96.9087 122.456 96.689 122.5 96.4429 122.535C96.2056 122.579 95.9814 122.601 95.7705 122.601C95.4805 122.601 95.2168 122.588 94.9795 122.561C94.7422 122.535 94.5269 122.486 94.3335 122.416C94.1489 122.346 93.9819 122.271 93.8325 122.192C93.6919 122.122 93.5645 122.016 93.4502 121.876C93.3447 121.735 93.2524 121.603 93.1733 121.48C93.103 121.357 93.0415 121.19 92.9888 120.979C92.9448 120.759 92.9053 120.566 92.8701 120.399C92.8438 120.232 92.8218 120.008 92.8042 119.727C92.7954 119.437 92.7866 119.186 92.7778 118.975C92.7778 118.755 92.7778 118.47 92.7778 118.118V111.039C91.8901 110.995 91.187 110.907 90.6685 110.775V110.182C90.9146 110.164 91.2837 110.12 91.7759 110.05C92.2681 109.971 92.6021 109.922 92.7778 109.905V109.153C93.3931 108.371 94.1753 107.589 95.1245 106.807L95.4409 106.939C95.23 108.31 95.1245 109.298 95.1245 109.905C95.3882 109.922 95.876 109.971 96.5879 110.05C97.2998 110.12 97.7656 110.164 97.9854 110.182V110.775C97.5107 110.898 96.5571 110.986 95.1245 111.039V116.879C95.1245 117.292 95.1245 117.604 95.1245 117.815C95.1333 118.026 95.1509 118.316 95.1772 118.685C95.2036 119.054 95.2432 119.34 95.2959 119.542C95.3574 119.744 95.4409 119.977 95.5464 120.241C95.6606 120.496 95.7969 120.693 95.9551 120.834C96.1221 120.966 96.3286 121.08 96.5747 121.177C96.8208 121.274 97.1021 121.322 97.4185 121.322C97.8403 121.322 98.2974 121.243 98.7896 121.085ZM114.293 121.085L114.465 121.704C114.438 121.713 114.346 121.753 114.188 121.823C114.039 121.893 113.898 121.955 113.766 122.007C113.634 122.06 113.458 122.126 113.239 122.205C113.019 122.284 112.808 122.35 112.606 122.403C112.413 122.456 112.193 122.5 111.947 122.535C111.709 122.579 111.485 122.601 111.274 122.601C110.984 122.601 110.721 122.588 110.483 122.561C110.246 122.535 110.031 122.486 109.837 122.416C109.653 122.346 109.486 122.271 109.336 122.192C109.196 122.122 109.068 122.016 108.954 121.876C108.849 121.735 108.756 121.603 108.677 121.48C108.607 121.357 108.545 121.19 108.493 120.979C108.449 120.759 108.409 120.566 108.374 120.399C108.348 120.232 108.326 120.008 108.308 119.727C108.299 119.437 108.291 119.186 108.282 118.975C108.282 118.755 108.282 118.47 108.282 118.118V111.039C107.394 110.995 106.691 110.907 106.172 110.775V110.182C106.418 110.164 106.788 110.12 107.28 110.05C107.772 109.971 108.106 109.922 108.282 109.905V109.153C108.897 108.371 109.679 107.589 110.628 106.807L110.945 106.939C110.734 108.31 110.628 109.298 110.628 109.905C110.892 109.922 111.38 109.971 112.092 110.05C112.804 110.12 113.27 110.164 113.489 110.182V110.775C113.015 110.898 112.061 110.986 110.628 111.039V116.879C110.628 117.292 110.628 117.604 110.628 117.815C110.637 118.026 110.655 118.316 110.681 118.685C110.708 119.054 110.747 119.34 110.8 119.542C110.861 119.744 110.945 119.977 111.05 120.241C111.165 120.496 111.301 120.693 111.459 120.834C111.626 120.966 111.833 121.08 112.079 121.177C112.325 121.274 112.606 121.322 112.922 121.322C113.344 121.322 113.801 121.243 114.293 121.085ZM121.927 122.601C121.057 122.601 120.235 122.464 119.461 122.192C118.697 121.928 118.011 121.542 117.405 121.032C116.798 120.522 116.319 119.859 115.968 119.041C115.616 118.224 115.44 117.301 115.44 116.273C115.44 115.402 115.563 114.598 115.81 113.86C116.056 113.113 116.39 112.476 116.812 111.948C117.233 111.421 117.726 110.973 118.288 110.604C118.859 110.226 119.461 109.949 120.094 109.773C120.736 109.589 121.391 109.496 122.059 109.496C123.992 109.496 125.557 110.068 126.752 111.21C127.956 112.344 128.558 113.842 128.558 115.706C128.558 116.831 128.374 117.841 128.004 118.738C127.644 119.634 127.152 120.359 126.528 120.913C125.904 121.467 125.201 121.889 124.418 122.179C123.636 122.46 122.806 122.601 121.927 122.601ZM117.932 115.956C117.932 116.721 118.02 117.442 118.196 118.118C118.38 118.786 118.648 119.388 119 119.924C119.36 120.461 119.826 120.882 120.397 121.19C120.978 121.498 121.637 121.651 122.375 121.651C123.553 121.651 124.462 121.159 125.104 120.175C125.754 119.191 126.08 117.947 126.08 116.444C126.08 115.609 125.996 114.844 125.829 114.15C125.671 113.447 125.42 112.814 125.078 112.252C124.744 111.68 124.287 111.236 123.707 110.92C123.135 110.604 122.467 110.445 121.703 110.445C121.035 110.445 120.446 110.608 119.936 110.933C119.426 111.258 119.031 111.693 118.75 112.238C118.477 112.783 118.271 113.368 118.13 113.992C117.998 114.616 117.932 115.271 117.932 115.956ZM36.563 143.118L38.0396 143.962C39.1997 144.621 39.9907 145.117 40.4126 145.451C41.564 146.365 42.21 147.504 42.3506 148.866C42.377 149.086 42.3901 149.314 42.3901 149.551C42.3901 150.255 42.2627 150.896 42.0078 151.476C41.7617 152.047 41.4321 152.526 41.019 152.913C40.606 153.291 40.127 153.612 39.582 153.876C39.0371 154.13 38.4746 154.315 37.8945 154.429C37.3232 154.544 36.7432 154.601 36.1543 154.601C34.4844 154.601 33.0693 154.24 31.9092 153.52C31.6631 152.992 31.4565 152.28 31.2896 151.384C31.1313 150.479 31.0522 149.604 31.0522 148.76L31.9092 148.549C31.9795 149.006 32.0718 149.437 32.186 149.841C32.3003 150.246 32.4805 150.698 32.7266 151.199C32.9814 151.692 33.2803 152.113 33.623 152.465C33.9746 152.808 34.4316 153.102 34.9941 153.348C35.5654 153.586 36.2026 153.704 36.9058 153.704C37.8638 153.704 38.6416 153.41 39.2393 152.821C39.8457 152.223 40.1489 151.41 40.1489 150.382C40.1489 148.668 38.8965 147.249 36.3916 146.124L34.6646 145.174C33.8296 144.726 33.1265 144.098 32.5552 143.289C31.9839 142.481 31.6982 141.597 31.6982 140.639C31.6982 139.848 31.8521 139.145 32.1597 138.53C32.4761 137.915 32.9023 137.427 33.4385 137.067C33.9746 136.697 34.5679 136.425 35.2183 136.249C35.8774 136.065 36.5762 135.972 37.3145 135.972C38.0967 135.972 38.8174 136.056 39.4766 136.223C40.1357 136.39 40.6587 136.592 41.0454 136.829C41.2212 137.559 41.3091 138.802 41.3091 140.56H40.6367C40.584 140.288 40.54 140.077 40.5049 139.927C40.4697 139.769 40.4038 139.541 40.3071 139.242C40.2104 138.943 40.1094 138.706 40.0039 138.53C39.8984 138.345 39.749 138.134 39.5557 137.897C39.3623 137.66 39.147 137.475 38.9097 137.343C38.6724 137.212 38.3779 137.097 38.0264 137.001C37.6836 136.904 37.3013 136.856 36.8794 136.856C36.0708 136.856 35.3765 137.128 34.7964 137.673C34.2251 138.209 33.9395 138.917 33.9395 139.796C33.9395 140.525 34.1592 141.131 34.5986 141.615C35.0381 142.098 35.6929 142.599 36.563 143.118ZM52.0537 153.085L52.2251 153.704C52.1987 153.713 52.1064 153.753 51.9482 153.823C51.7988 153.893 51.6582 153.955 51.5264 154.007C51.3945 154.06 51.2188 154.126 50.999 154.205C50.7793 154.284 50.5684 154.35 50.3662 154.403C50.1729 154.456 49.9531 154.5 49.707 154.535C49.4697 154.579 49.2456 154.601 49.0347 154.601C48.7446 154.601 48.481 154.588 48.2437 154.561C48.0063 154.535 47.791 154.486 47.5977 154.416C47.4131 154.346 47.2461 154.271 47.0967 154.192C46.9561 154.122 46.8286 154.016 46.7144 153.876C46.6089 153.735 46.5166 153.603 46.4375 153.48C46.3672 153.357 46.3057 153.19 46.2529 152.979C46.209 152.759 46.1694 152.566 46.1343 152.399C46.1079 152.232 46.0859 152.008 46.0684 151.727C46.0596 151.437 46.0508 151.186 46.042 150.975C46.042 150.755 46.042 150.47 46.042 150.118V143.039C45.1543 142.995 44.4512 142.907 43.9326 142.775V142.182C44.1787 142.164 44.5479 142.12 45.04 142.05C45.5322 141.971 45.8662 141.922 46.042 141.905V141.153C46.6572 140.371 47.4395 139.589 48.3887 138.807L48.7051 138.939C48.4941 140.31 48.3887 141.298 48.3887 141.905C48.6523 141.922 49.1401 141.971 49.8521 142.05C50.564 142.12 51.0298 142.164 51.2495 142.182V142.775C50.7749 142.898 49.8213 142.986 48.3887 143.039V148.879C48.3887 149.292 48.3887 149.604 48.3887 149.815C48.3975 150.026 48.415 150.316 48.4414 150.685C48.4678 151.054 48.5073 151.34 48.5601 151.542C48.6216 151.744 48.7051 151.977 48.8105 152.241C48.9248 152.496 49.061 152.693 49.2192 152.834C49.3862 152.966 49.5928 153.08 49.8389 153.177C50.085 153.274 50.3662 153.322 50.6826 153.322C51.1045 153.322 51.5615 153.243 52.0537 153.085ZM61.5723 148.444L58.6323 155.326C58.4478 155.756 58.2939 156.112 58.1709 156.394C58.0479 156.675 57.8809 157.018 57.6699 157.422C57.4678 157.826 57.2744 158.156 57.0898 158.411C56.9141 158.674 56.6943 158.951 56.4307 159.241C56.1758 159.54 55.9121 159.773 55.6396 159.94C55.376 160.107 55.0728 160.248 54.73 160.362C54.396 160.476 54.04 160.533 53.6621 160.533C53.5479 160.533 53.3677 160.516 53.1216 160.481C53.1831 159.821 53.3193 159.356 53.5303 159.083C53.7764 158.863 54.1104 158.626 54.5322 158.371C54.9541 158.116 55.332 157.883 55.666 157.672C56 157.462 56.3296 157.215 56.6548 156.934C56.9888 156.662 57.248 156.332 57.4326 155.945C57.6172 155.568 57.7095 155.137 57.7095 154.653C57.7095 153.924 57.4414 152.935 56.9053 151.687L53.6621 144.37C53.627 144.291 53.5742 144.159 53.5039 143.975C53.4424 143.781 53.3984 143.658 53.3721 143.606C53.3457 143.553 53.293 143.465 53.2139 143.342C53.1436 143.219 53.0732 143.135 53.0029 143.091C52.9326 143.039 52.8315 142.977 52.6997 142.907C52.5767 142.837 52.4272 142.775 52.2515 142.722L51.5527 142.498V141.905H57.7622V142.498L56.7075 142.749C56.5581 142.784 56.4526 142.815 56.3911 142.841C56.3296 142.859 56.2461 142.889 56.1406 142.933C56.0352 142.968 55.9604 143.017 55.9165 143.078C55.8726 143.131 55.8506 143.193 55.8506 143.263C55.8506 143.359 55.9385 143.628 56.1143 144.067L59.1992 151.568C59.5508 150.734 60.144 149.209 60.979 146.994C61.8228 144.77 62.2446 143.496 62.2446 143.171C62.2446 143.135 62.2402 143.105 62.2314 143.078C62.2227 143.043 62.2051 143.017 62.1787 142.999C62.1523 142.973 62.126 142.951 62.0996 142.933C62.082 142.907 62.0513 142.889 62.0073 142.88C61.9722 142.863 61.9414 142.85 61.915 142.841C61.8887 142.832 61.8491 142.823 61.7964 142.815C61.7437 142.797 61.7041 142.788 61.6777 142.788C61.6514 142.779 61.6074 142.771 61.5459 142.762C61.4932 142.753 61.458 142.749 61.4404 142.749L60.0034 142.498V141.905H65.4878V142.498L64.9209 142.696C64.5605 142.819 64.3188 142.942 64.1958 143.065C63.7212 143.54 62.8467 145.333 61.5723 148.444ZM65.9888 154.192V153.599L66.6348 153.52C66.9248 153.484 67.1226 153.454 67.228 153.427C67.3423 153.401 67.4565 153.322 67.5708 153.19C67.6851 153.058 67.7554 152.869 67.7817 152.623C67.8081 152.377 67.8213 152.017 67.8213 151.542V139.07C67.8213 138.394 67.8125 137.906 67.7949 137.607C67.7861 137.308 67.751 136.979 67.6895 136.618C67.6367 136.258 67.54 136.016 67.3994 135.893C67.2676 135.761 67.083 135.695 66.8457 135.695C66.793 135.695 66.7183 135.7 66.6216 135.709C66.5337 135.717 66.4854 135.722 66.4766 135.722L66.0679 135.775L65.9888 135.181C66.4458 135.085 67.1182 134.988 68.0059 134.891C68.9023 134.795 69.623 134.746 70.168 134.746V151.542C70.168 151.929 70.1812 152.236 70.2075 152.465C70.2339 152.685 70.2646 152.865 70.2998 153.005C70.335 153.146 70.4097 153.252 70.5239 153.322C70.647 153.383 70.7568 153.427 70.8535 153.454C70.959 153.471 71.1348 153.493 71.3809 153.52L72.0005 153.599V154.192H65.9888ZM74.1362 154.192V153.599L74.7822 153.52C75.0635 153.484 75.2612 153.454 75.3755 153.427C75.4985 153.392 75.6128 153.309 75.7183 153.177C75.8325 153.036 75.9028 152.843 75.9292 152.597C75.9556 152.351 75.9688 151.999 75.9688 151.542V146.308C75.9688 144.858 75.9292 143.931 75.8501 143.526C75.7798 143.113 75.5688 142.907 75.2173 142.907C75.1646 142.907 75.0898 142.911 74.9932 142.92C74.8965 142.929 74.8438 142.933 74.835 142.933L74.2417 143.091L74.1362 142.445C76.2104 141.813 77.6035 141.496 78.3154 141.496V151.542C78.3154 152.149 78.3506 152.584 78.4209 152.847C78.5 153.111 78.6099 153.278 78.7505 153.348C78.8999 153.419 79.1636 153.476 79.5415 153.52L80.1611 153.599V154.192H74.1362ZM77.9463 137.976C77.6562 138.275 77.2959 138.424 76.8652 138.424C76.4346 138.424 76.0742 138.275 75.7842 137.976C75.4941 137.669 75.3491 137.313 75.3491 136.908C75.3491 136.495 75.4897 136.144 75.771 135.854C76.061 135.555 76.4258 135.405 76.8652 135.405C77.3047 135.405 77.665 135.555 77.9463 135.854C78.2363 136.144 78.3813 136.495 78.3813 136.908C78.3813 137.313 78.2363 137.669 77.9463 137.976ZM89.7983 145.557H88.9546C88.9546 145.117 88.8623 144.665 88.6777 144.199C88.502 143.733 88.2031 143.316 87.7812 142.946C87.3682 142.577 86.8892 142.393 86.3442 142.393C85.8257 142.393 85.4038 142.564 85.0786 142.907C84.7622 143.25 84.604 143.715 84.604 144.304C84.604 144.717 84.7139 145.082 84.9336 145.399C85.1533 145.715 85.439 145.979 85.7905 146.19C86.1421 146.401 86.5288 146.603 86.9507 146.796C87.3813 146.981 87.812 147.187 88.2427 147.416C88.6733 147.635 89.0645 147.886 89.416 148.167C89.7676 148.448 90.0532 148.813 90.2729 149.261C90.4927 149.71 90.6025 150.228 90.6025 150.817C90.6025 152.047 90.1631 152.988 89.2842 153.638C88.4141 154.28 87.2979 154.601 85.9355 154.601C85.3994 154.601 84.8853 154.548 84.3931 154.443C83.9097 154.346 83.5669 154.258 83.3647 154.179C83.1626 154.1 82.877 153.977 82.5078 153.81C82.165 152.79 81.9937 151.586 81.9937 150.197H82.7188C82.8682 150.69 83.0352 151.125 83.2197 151.503C83.4043 151.88 83.6372 152.245 83.9185 152.597C84.1997 152.948 84.5425 153.221 84.9468 153.414C85.3599 153.608 85.8257 153.704 86.3442 153.704C86.9155 153.704 87.377 153.502 87.7285 153.098C88.0801 152.685 88.2559 152.223 88.2559 151.714C88.2559 151.221 88.146 150.791 87.9263 150.422C87.7065 150.052 87.4209 149.754 87.0693 149.525C86.7178 149.297 86.3267 149.086 85.896 148.892C85.4741 148.699 85.0479 148.497 84.6172 148.286C84.1865 148.075 83.7954 147.838 83.4438 147.574C83.0923 147.301 82.8066 146.945 82.5869 146.506C82.3672 146.058 82.2573 145.535 82.2573 144.937C82.2573 143.874 82.6704 143.034 83.4966 142.419C84.3228 141.804 85.3511 141.496 86.5815 141.496C87.6099 141.496 88.5635 141.76 89.4424 142.287C89.6797 143.166 89.7983 144.256 89.7983 145.557ZM100.042 153.085L100.213 153.704C100.187 153.713 100.095 153.753 99.9365 153.823C99.7871 153.893 99.6465 153.955 99.5146 154.007C99.3828 154.06 99.207 154.126 98.9873 154.205C98.7676 154.284 98.5566 154.35 98.3545 154.403C98.1611 154.456 97.9414 154.5 97.6953 154.535C97.458 154.579 97.2339 154.601 97.0229 154.601C96.7329 154.601 96.4692 154.588 96.2319 154.561C95.9946 154.535 95.7793 154.486 95.5859 154.416C95.4014 154.346 95.2344 154.271 95.085 154.192C94.9443 154.122 94.8169 154.016 94.7026 153.876C94.5972 153.735 94.5049 153.603 94.4258 153.48C94.3555 153.357 94.2939 153.19 94.2412 152.979C94.1973 152.759 94.1577 152.566 94.1226 152.399C94.0962 152.232 94.0742 152.008 94.0566 151.727C94.0479 151.437 94.0391 151.186 94.0303 150.975C94.0303 150.755 94.0303 150.47 94.0303 150.118V143.039C93.1426 142.995 92.4395 142.907 91.9209 142.775V142.182C92.167 142.164 92.5361 142.12 93.0283 142.05C93.5205 141.971 93.8545 141.922 94.0303 141.905V141.153C94.6455 140.371 95.4277 139.589 96.377 138.807L96.6934 138.939C96.4824 140.31 96.377 141.298 96.377 141.905C96.6406 141.922 97.1284 141.971 97.8403 142.05C98.5522 142.12 99.0181 142.164 99.2378 142.182V142.775C98.7632 142.898 97.8096 142.986 96.377 143.039V148.879C96.377 149.292 96.377 149.604 96.377 149.815C96.3857 150.026 96.4033 150.316 96.4297 150.685C96.4561 151.054 96.4956 151.34 96.5483 151.542C96.6099 151.744 96.6934 151.977 96.7988 152.241C96.9131 152.496 97.0493 152.693 97.2075 152.834C97.3745 152.966 97.5811 153.08 97.8271 153.177C98.0732 153.274 98.3545 153.322 98.6709 153.322C99.0928 153.322 99.5498 153.243 100.042 153.085Z" fill="#2C2C2C"/>
<path d="M0.242188 126.239H129.745V127.584H0.242188V126.239ZM29.9976 158.239H99.9893V159.584H29.9976V158.239Z" fill="#2C2C2C"/>
<defs>
<clipPath id="clip0_681_117">
<rect width="66.7947" height="66.7947" fill="white" transform="translate(31.6025)"/>
</clipPath>
</defs>
</svg>
