<svg width="92" height="160" viewBox="0 0 92 160" fill="none" xmlns="http://www.w3.org/2000/svg">
<path d="M74.2805 54.7196H17.7197C15.2476 54.7196 12.9998 53.7084 11.3751 52.0837C9.74829 50.4569 8.73699 48.2113 8.73699 45.7391V9.34832C8.73699 6.87611 9.74827 4.63117 11.375 3.00386L74.2805 54.7196ZM74.2805 54.7196C76.7525 54.7196 79.0004 53.7107 80.6253 52.0836C82.2519 50.4563 83.2632 48.2113 83.2632 45.7391V9.34832C83.2632 6.87609 82.2519 4.63053 80.6251 3.00374C79.0005 1.37906 76.7526 0.367853 74.2805 0.367853H17.7197C15.2477 0.367853 12.9999 1.37672 11.3751 3.00377L74.2805 54.7196ZM37.6649 32.3869L37.6649 32.3869C40.0042 34.6123 43.0014 35.724 45.9982 35.724C48.9951 35.724 51.9922 34.6124 54.3315 32.3869L54.1544 32.2007L54.3315 32.3869L56.539 30.2865L77.1011 49.8563C76.2966 50.4123 75.3243 50.7382 74.2801 50.7382H17.7193H17.7162C16.674 50.7382 15.7005 50.4123 14.8953 49.8562L35.4573 30.2865L37.6649 32.3869ZM79.2332 46.3998L59.4215 27.5432L79.2324 8.69007C79.2609 8.90606 79.2758 9.12613 79.2758 9.34908V45.7399C79.2758 45.9638 79.2616 46.1842 79.2332 46.3998ZM12.7235 9.34894C12.7235 9.12505 12.7378 8.90471 12.7662 8.68911L32.5778 27.543L12.767 46.3987C12.7385 46.1827 12.7235 45.9627 12.7235 45.7397V9.34894ZM74.2805 4.34986C75.3246 4.34986 76.2997 4.67699 77.1057 5.23485L55.1797 26.1023L55.1797 26.1022L55.1752 26.1067L55.1726 26.1093L51.598 29.5101C50.0315 31.0003 48.019 31.7453 46.0035 31.7453C43.9857 31.7453 41.9732 31.0002 40.4091 29.5102L40.409 29.5101L36.8392 26.1136L36.8275 26.1019L36.8275 26.1018L36.8229 26.0974L14.8987 5.23184C15.7032 4.67581 16.6755 4.34986 17.7197 4.34986H74.2805Z" fill="#C7B36C" stroke="#C7B36C" stroke-width="0.513805"/>
<path d="M17.5762 112.188L18.3013 112.36C18.1519 113.933 17.7827 115.462 17.1938 116.948C16.6929 117.185 15.9326 117.413 14.9131 117.633C13.8936 117.862 12.7993 117.976 11.6304 117.976C10.5581 117.976 9.54736 117.875 8.59814 117.673C7.64893 117.479 6.73926 117.15 5.86914 116.684C5.00781 116.218 4.26514 115.638 3.64111 114.944C3.02588 114.24 2.53369 113.357 2.16455 112.294C1.79541 111.23 1.61084 110.035 1.61084 108.708C1.61084 107.706 1.7207 106.779 1.94043 105.926C2.16895 105.065 2.47217 104.322 2.8501 103.698C3.23682 103.065 3.69824 102.498 4.23438 101.997C4.77051 101.496 5.33301 101.083 5.92188 100.758C6.51953 100.433 7.15234 100.165 7.82031 99.9539C8.48828 99.7341 9.13867 99.5803 9.77148 99.4924C10.4131 99.3958 11.0503 99.3474 11.6831 99.3474C12.9312 99.3474 14.0518 99.4661 15.0449 99.7034C16.0469 99.9407 16.7632 100.191 17.1938 100.455C17.4839 101.773 17.6289 103.105 17.6289 104.449L16.9038 104.608C16.895 104.581 16.8643 104.458 16.8115 104.239C16.7676 104.01 16.728 103.843 16.6929 103.738C16.6665 103.623 16.6094 103.443 16.5215 103.197C16.4424 102.942 16.3589 102.74 16.271 102.591C16.1831 102.441 16.0601 102.252 15.9019 102.024C15.7524 101.786 15.5898 101.597 15.4141 101.457C15.2471 101.307 15.0317 101.149 14.7681 100.982C14.5132 100.806 14.2363 100.67 13.9375 100.573C13.6475 100.477 13.3047 100.398 12.9092 100.336C12.5225 100.266 12.105 100.231 11.6567 100.231C9.42432 100.231 7.66211 100.934 6.37012 102.34C5.08691 103.738 4.44531 105.689 4.44531 108.194C4.44531 109.134 4.5332 110.035 4.70898 110.896C4.88477 111.749 5.16162 112.553 5.53955 113.309C5.92627 114.065 6.39209 114.724 6.93701 115.286C7.49072 115.84 8.16309 116.28 8.9541 116.605C9.74512 116.921 10.6196 117.079 11.5776 117.079C12.1577 117.079 12.6895 117.027 13.1729 116.921C13.665 116.816 14.0781 116.701 14.4121 116.578C14.7549 116.455 15.0801 116.253 15.3877 115.972C15.6953 115.691 15.9326 115.462 16.0996 115.286C16.2666 115.102 16.4512 114.812 16.6533 114.416C16.8555 114.012 16.9873 113.726 17.0488 113.559C17.1191 113.392 17.2378 113.085 17.4048 112.636C17.4312 112.575 17.4487 112.527 17.4575 112.491C17.4751 112.448 17.4927 112.399 17.5103 112.346C17.5366 112.285 17.5586 112.232 17.5762 112.188ZM26.396 117.976C25.5259 117.976 24.7041 117.84 23.9307 117.567C23.166 117.303 22.4805 116.917 21.874 116.407C21.2676 115.897 20.7886 115.234 20.437 114.416C20.0854 113.599 19.9097 112.676 19.9097 111.648C19.9097 110.778 20.0327 109.973 20.2788 109.235C20.5249 108.488 20.8589 107.851 21.2808 107.323C21.7026 106.796 22.1948 106.348 22.7573 105.979C23.3286 105.601 23.9307 105.324 24.5635 105.148C25.2051 104.964 25.8599 104.871 26.5278 104.871C28.4614 104.871 30.0259 105.443 31.2212 106.585C32.4253 107.719 33.0273 109.218 33.0273 111.081C33.0273 112.206 32.8428 113.217 32.4736 114.113C32.1133 115.01 31.6211 115.735 30.9971 116.288C30.373 116.842 29.6699 117.264 28.8877 117.554C28.1055 117.835 27.2749 117.976 26.396 117.976ZM22.4014 111.331C22.4014 112.096 22.4893 112.817 22.665 113.493C22.8496 114.161 23.1177 114.763 23.4692 115.3C23.8296 115.836 24.2954 116.258 24.8667 116.565C25.4468 116.873 26.106 117.027 26.8442 117.027C28.022 117.027 28.9316 116.534 29.5732 115.55C30.2236 114.566 30.5488 113.322 30.5488 111.819C30.5488 110.984 30.4653 110.219 30.2983 109.525C30.1401 108.822 29.8896 108.189 29.5469 107.627C29.2129 107.055 28.7559 106.612 28.1758 106.295C27.6045 105.979 26.9365 105.821 26.1719 105.821C25.5039 105.821 24.915 105.983 24.4053 106.308C23.8955 106.634 23.5 107.069 23.2188 107.614C22.9463 108.158 22.7397 108.743 22.5991 109.367C22.4673 109.991 22.4014 110.646 22.4014 111.331ZM35.2554 117.567V116.974L35.9014 116.895C36.2529 116.86 36.499 116.798 36.6396 116.71C36.7891 116.622 36.8989 116.447 36.9692 116.183C37.0483 115.919 37.0879 115.497 37.0879 114.917V109.683C37.0879 108.233 37.0483 107.306 36.9692 106.902C36.8989 106.489 36.688 106.282 36.3364 106.282C36.2837 106.282 36.209 106.286 36.1123 106.295C36.0156 106.304 35.9629 106.308 35.9541 106.308L35.3608 106.467L35.2554 105.821C37.3296 105.188 38.7227 104.871 39.4346 104.871V106.572C40.6738 105.438 42.0537 104.871 43.5742 104.871C44.1631 104.871 44.6816 104.937 45.1299 105.069C45.5781 105.192 45.9473 105.337 46.2373 105.504C46.5361 105.671 46.7866 105.93 46.9888 106.282C47.1909 106.625 47.3447 106.932 47.4502 107.205C47.5557 107.469 47.6304 107.855 47.6743 108.365C47.7271 108.866 47.7578 109.266 47.7666 109.565C47.7754 109.864 47.7798 110.307 47.7798 110.896V114.917C47.7798 115.506 47.8149 115.932 47.8853 116.196C47.9556 116.451 48.0654 116.622 48.2148 116.71C48.3643 116.798 48.6235 116.86 48.9927 116.895L49.6123 116.974V117.567H43.6006V116.974L44.2466 116.895C44.5981 116.86 44.8442 116.798 44.9849 116.71C45.1343 116.622 45.2441 116.447 45.3145 116.183C45.3936 115.919 45.4331 115.497 45.4331 114.917V111.305C45.4331 110.742 45.4243 110.316 45.4067 110.026C45.3979 109.727 45.3672 109.341 45.3145 108.866C45.2617 108.383 45.165 108.013 45.0244 107.759C44.8926 107.495 44.7124 107.222 44.4839 106.941C44.2554 106.66 43.9478 106.458 43.561 106.335C43.1831 106.212 42.7349 106.15 42.2163 106.15C41.1265 106.15 40.1992 106.634 39.4346 107.6V114.917C39.4346 115.506 39.4697 115.932 39.54 116.196C39.6104 116.451 39.7202 116.622 39.8696 116.71C40.019 116.798 40.2783 116.86 40.6475 116.895L41.2803 116.974V117.567H35.2554ZM58.7881 116.46L58.9595 117.079C58.9331 117.088 58.8408 117.128 58.6826 117.198C58.5332 117.268 58.3926 117.33 58.2607 117.383C58.1289 117.435 57.9531 117.501 57.7334 117.58C57.5137 117.659 57.3027 117.725 57.1006 117.778C56.9072 117.831 56.6875 117.875 56.4414 117.91C56.2041 117.954 55.98 117.976 55.769 117.976C55.479 117.976 55.2153 117.963 54.978 117.936C54.7407 117.91 54.5254 117.862 54.332 117.791C54.1475 117.721 53.9805 117.646 53.8311 117.567C53.6904 117.497 53.563 117.391 53.4487 117.251C53.3433 117.11 53.251 116.978 53.1719 116.855C53.1016 116.732 53.04 116.565 52.9873 116.354C52.9434 116.135 52.9038 115.941 52.8687 115.774C52.8423 115.607 52.8203 115.383 52.8027 115.102C52.7939 114.812 52.7852 114.561 52.7764 114.35C52.7764 114.131 52.7764 113.845 52.7764 113.493V106.414C51.8887 106.37 51.1855 106.282 50.667 106.15V105.557C50.9131 105.539 51.2822 105.495 51.7744 105.425C52.2666 105.346 52.6006 105.298 52.7764 105.28V104.529C53.3916 103.746 54.1738 102.964 55.123 102.182L55.4395 102.314C55.2285 103.685 55.123 104.674 55.123 105.28C55.3867 105.298 55.8745 105.346 56.5864 105.425C57.2983 105.495 57.7642 105.539 57.9839 105.557V106.15C57.5093 106.273 56.5557 106.361 55.123 106.414V112.254C55.123 112.667 55.123 112.979 55.123 113.19C55.1318 113.401 55.1494 113.691 55.1758 114.06C55.2021 114.429 55.2417 114.715 55.2944 114.917C55.356 115.119 55.4395 115.352 55.5449 115.616C55.6592 115.871 55.7954 116.069 55.9536 116.209C56.1206 116.341 56.3271 116.455 56.5732 116.552C56.8193 116.649 57.1006 116.697 57.417 116.697C57.8389 116.697 58.2959 116.618 58.7881 116.46ZM71.3521 116.921L71.4971 117.303C71.2861 117.444 71.1323 117.541 71.0356 117.594C70.939 117.655 70.7324 117.734 70.416 117.831C70.1084 117.927 69.7832 117.976 69.4404 117.976C68.3682 117.976 67.6562 117.598 67.3047 116.842C66.9443 117.079 66.6235 117.268 66.3423 117.409C66.061 117.541 65.6523 117.668 65.1162 117.791C64.5889 117.914 63.9956 117.976 63.3364 117.976C62.3433 117.976 61.5347 117.73 60.9106 117.238C60.2954 116.737 59.9878 116.108 59.9878 115.352C59.9878 114.834 60.0845 114.35 60.2778 113.902C60.48 113.454 60.7612 113.067 61.1216 112.742C61.4907 112.408 61.8818 112.114 62.2949 111.859C62.708 111.595 63.1782 111.362 63.7056 111.16C64.2329 110.958 64.7075 110.791 65.1294 110.659C65.5601 110.518 66.0083 110.382 66.4741 110.25C66.7378 110.18 66.9268 110.127 67.041 110.092V109.472C67.041 108.989 67.0015 108.563 66.9224 108.194C66.8521 107.824 66.7246 107.477 66.54 107.152C66.3643 106.827 66.105 106.581 65.7622 106.414C65.4282 106.238 65.0151 106.15 64.5229 106.15C64.312 106.15 64.1099 106.168 63.9165 106.203C63.7231 106.238 63.5474 106.282 63.3892 106.335C63.2397 106.379 63.0903 106.453 62.9409 106.559C62.7915 106.656 62.6641 106.739 62.5586 106.809C62.4619 106.871 62.3521 106.976 62.229 107.126C62.106 107.275 62.0137 107.385 61.9521 107.455C61.8906 107.526 61.8071 107.649 61.7017 107.824C61.605 107.991 61.5391 108.106 61.5039 108.167C61.4775 108.229 61.4204 108.352 61.3325 108.536C61.2446 108.712 61.1919 108.813 61.1743 108.84H60.9634C60.6294 108.479 60.3965 108.123 60.2646 107.772C61.7061 105.838 63.5034 104.871 65.6567 104.871C66.4126 104.871 67.0366 104.968 67.5288 105.161C68.0298 105.346 68.4121 105.64 68.6758 106.045C68.9482 106.44 69.1328 106.888 69.2295 107.389C69.335 107.89 69.3877 108.51 69.3877 109.248V113.111C69.3877 113.427 69.3877 113.669 69.3877 113.836C69.3965 113.994 69.4053 114.219 69.4141 114.509C69.4229 114.799 69.4404 115.027 69.4668 115.194C69.4932 115.352 69.5283 115.546 69.5723 115.774C69.6162 115.994 69.6733 116.17 69.7437 116.302C69.8228 116.425 69.9106 116.552 70.0073 116.684C70.1128 116.807 70.2358 116.895 70.3765 116.948C70.5259 117 70.6929 117.027 70.8774 117.027C71.0532 117.027 71.2114 116.991 71.3521 116.921ZM67.041 111.358H66.6587C66.228 111.358 65.7886 111.41 65.3403 111.516C64.9009 111.613 64.4526 111.775 63.9956 112.004C63.5474 112.232 63.1826 112.571 62.9014 113.019C62.6201 113.458 62.4795 113.977 62.4795 114.574C62.4795 115.339 62.7036 115.941 63.1519 116.381C63.6001 116.811 64.2109 117.027 64.9844 117.027C65.3447 117.027 65.6831 116.948 65.9995 116.789C66.3247 116.622 66.5532 116.473 66.6851 116.341C66.8257 116.2 66.9443 116.06 67.041 115.919V111.358ZM83.1646 116.196L83.3887 116.842C82.3604 117.598 80.9365 117.976 79.1172 117.976C78.3262 117.976 77.5615 117.857 76.8232 117.62C76.0938 117.391 75.4258 117.053 74.8193 116.605C74.2217 116.148 73.7383 115.546 73.3691 114.799C73.0088 114.052 72.8286 113.212 72.8286 112.281C72.8286 111.279 72.9648 110.36 73.2373 109.525C73.5098 108.69 73.8701 107.991 74.3184 107.429C74.7754 106.866 75.3027 106.387 75.9004 105.992C76.5068 105.596 77.1353 105.311 77.7856 105.135C78.436 104.959 79.0952 104.871 79.7632 104.871C80.4136 104.871 81.02 104.942 81.5825 105.082C82.1538 105.223 82.5933 105.416 82.9009 105.662C82.9009 106.269 82.668 106.924 82.2021 107.627H82.0308C81.7583 107.249 81.3584 106.91 80.8311 106.612C80.3125 106.304 79.6621 106.15 78.8799 106.15C77.8604 106.15 77.0078 106.55 76.3223 107.35C75.6455 108.15 75.3071 109.279 75.3071 110.738C75.3071 112.803 75.7861 114.368 76.7441 115.431C77.7021 116.495 78.981 117.027 80.5806 117.027C81.3013 117.027 82.1626 116.75 83.1646 116.196ZM91.7998 116.46L91.9712 117.079C91.9448 117.088 91.8525 117.128 91.6943 117.198C91.5449 117.268 91.4043 117.33 91.2725 117.383C91.1406 117.435 90.9648 117.501 90.7451 117.58C90.5254 117.659 90.3145 117.725 90.1123 117.778C89.9189 117.831 89.6992 117.875 89.4531 117.91C89.2158 117.954 88.9917 117.976 88.7808 117.976C88.4907 117.976 88.2271 117.963 87.9897 117.936C87.7524 117.91 87.5371 117.862 87.3438 117.791C87.1592 117.721 86.9922 117.646 86.8428 117.567C86.7021 117.497 86.5747 117.391 86.4604 117.251C86.355 117.11 86.2627 116.978 86.1836 116.855C86.1133 116.732 86.0518 116.565 85.999 116.354C85.9551 116.135 85.9155 115.941 85.8804 115.774C85.854 115.607 85.832 115.383 85.8145 115.102C85.8057 114.812 85.7969 114.561 85.7881 114.35C85.7881 114.131 85.7881 113.845 85.7881 113.493V106.414C84.9004 106.37 84.1973 106.282 83.6787 106.15V105.557C83.9248 105.539 84.2939 105.495 84.7861 105.425C85.2783 105.346 85.6123 105.298 85.7881 105.28V104.529C86.4033 103.746 87.1855 102.964 88.1348 102.182L88.4512 102.314C88.2402 103.685 88.1348 104.674 88.1348 105.28C88.3984 105.298 88.8862 105.346 89.5981 105.425C90.3101 105.495 90.7759 105.539 90.9956 105.557V106.15C90.521 106.273 89.5674 106.361 88.1348 106.414V112.254C88.1348 112.667 88.1348 112.979 88.1348 113.19C88.1436 113.401 88.1611 113.691 88.1875 114.06C88.2139 114.429 88.2534 114.715 88.3062 114.917C88.3677 115.119 88.4512 115.352 88.5566 115.616C88.6709 115.871 88.8071 116.069 88.9653 116.209C89.1323 116.341 89.3389 116.455 89.585 116.552C89.8311 116.649 90.1123 116.697 90.4287 116.697C90.8506 116.697 91.3076 116.618 91.7998 116.46ZM47.2788 149.804L46.6064 149.027C46.5449 148.965 46.457 148.877 46.3428 148.763C46.2373 148.64 46.1582 148.552 46.1055 148.499C46.0527 148.447 45.978 148.398 45.8813 148.354C45.7935 148.302 45.7012 148.275 45.6045 148.275C45.543 148.275 45.3276 148.363 44.9585 148.539C44.5981 148.715 44.1807 148.912 43.7061 149.132C43.2402 149.343 42.6074 149.536 41.8076 149.712C41.0166 149.888 40.2124 149.976 39.395 149.976C38.6128 149.976 37.9141 149.91 37.2988 149.778C36.6836 149.646 36.165 149.475 35.7432 149.264C35.3301 149.053 34.9697 148.772 34.6621 148.42C34.3633 148.06 34.1304 147.704 33.9634 147.352C33.7964 146.992 33.6646 146.557 33.5679 146.047C33.4712 145.537 33.4097 145.067 33.3833 144.636C33.3569 144.197 33.3438 143.678 33.3438 143.081V135.962C33.3438 134.292 33.2954 133.299 33.1987 132.982C33.1108 132.666 32.8076 132.481 32.2891 132.428L31.3135 132.336V131.743H37.8789V132.336L36.9033 132.428C36.3848 132.481 36.0815 132.661 35.9937 132.969C35.9058 133.277 35.8618 134.235 35.8618 135.843C35.8618 135.861 35.8618 135.874 35.8618 135.883C35.8618 135.891 35.8618 135.905 35.8618 135.922C35.8618 135.94 35.8618 135.953 35.8618 135.962V142.659C35.8618 143.503 35.8926 144.223 35.9541 144.821C36.0244 145.419 36.1562 146.003 36.3496 146.574C36.5518 147.146 36.8286 147.603 37.1802 147.946C37.5317 148.288 37.9976 148.565 38.5776 148.776C39.1665 148.978 39.8696 149.079 40.687 149.079C41.3374 149.079 41.957 148.996 42.5459 148.829C43.1436 148.653 43.6445 148.433 44.0488 148.17C44.4619 147.906 44.7827 147.677 45.0112 147.484C45.2397 147.282 45.4287 147.093 45.5781 146.917V135.962C45.5781 134.292 45.5298 133.299 45.4331 132.982C45.3452 132.666 45.042 132.481 44.5234 132.428L43.5479 132.336V131.743H50.1133V132.336L49.1377 132.428C48.6191 132.481 48.3115 132.666 48.2148 132.982C48.127 133.299 48.083 134.292 48.083 135.962V149.567L47.2788 149.804ZM59.8032 140.932H58.9595C58.9595 140.492 58.8672 140.04 58.6826 139.574C58.5068 139.108 58.208 138.691 57.7861 138.322C57.373 137.952 56.894 137.768 56.3491 137.768C55.8306 137.768 55.4087 137.939 55.0835 138.282C54.7671 138.625 54.6089 139.091 54.6089 139.679C54.6089 140.093 54.7188 140.457 54.9385 140.774C55.1582 141.09 55.4438 141.354 55.7954 141.565C56.147 141.776 56.5337 141.978 56.9556 142.171C57.3862 142.356 57.8169 142.562 58.2476 142.791C58.6782 143.01 59.0693 143.261 59.4209 143.542C59.7725 143.823 60.0581 144.188 60.2778 144.636C60.4976 145.085 60.6074 145.603 60.6074 146.192C60.6074 147.423 60.168 148.363 59.2891 149.013C58.4189 149.655 57.3027 149.976 55.9404 149.976C55.4043 149.976 54.8901 149.923 54.3979 149.818C53.9146 149.721 53.5718 149.633 53.3696 149.554C53.1675 149.475 52.8818 149.352 52.5127 149.185C52.1699 148.165 51.9985 146.961 51.9985 145.573H52.7236C52.873 146.065 53.04 146.5 53.2246 146.878C53.4092 147.256 53.6421 147.62 53.9233 147.972C54.2046 148.323 54.5474 148.596 54.9517 148.789C55.3647 148.983 55.8306 149.079 56.3491 149.079C56.9204 149.079 57.3818 148.877 57.7334 148.473C58.085 148.06 58.2607 147.598 58.2607 147.089C58.2607 146.596 58.1509 146.166 57.9312 145.797C57.7114 145.427 57.4258 145.129 57.0742 144.9C56.7227 144.672 56.3315 144.461 55.9009 144.267C55.479 144.074 55.0527 143.872 54.6221 143.661C54.1914 143.45 53.8003 143.213 53.4487 142.949C53.0972 142.677 52.8115 142.321 52.5918 141.881C52.3721 141.433 52.2622 140.91 52.2622 140.312C52.2622 139.249 52.6753 138.409 53.5015 137.794C54.3276 137.179 55.356 136.871 56.5864 136.871C57.6147 136.871 58.5684 137.135 59.4473 137.662C59.6846 138.541 59.8032 139.631 59.8032 140.932Z" fill="#2C2C2C"/>
<path d="M0.239746 121.615H91.7471V122.959H0.239746V121.615ZM30.5093 153.615H61.4907V154.959H30.5093V153.615Z" fill="#2C2C2C"/>
</svg>
